<svg width="16" height="16" viewBox="0 0 16 16" fill="none" xmlns="http://www.w3.org/2000/svg">
<path d="M9.4666 9H9.97994C10.439 9 10.6333 9.28803 10.6333 9.44C10.6333 9.596 10.4341 9.88667 9.97994 9.88667H7.22661H6.85327V9H9.4666Z" fill="#64748B" stroke="#64748B"/>
<path d="M1.83325 7.99992C1.83325 4.59606 4.59606 1.83325 7.99992 1.83325C11.4038 1.83325 14.1666 4.59606 14.1666 7.99992C14.1666 11.4038 11.4038 14.1666 7.99992 14.1666C4.59606 14.1666 1.83325 11.4038 1.83325 7.99992ZM9.37992 12.3333V11.8866H9.97992C11.3916 11.8866 12.6333 10.8379 12.6333 9.45325C12.6333 8.68633 12.2525 8.02168 11.6816 7.58288C11.827 7.27465 11.9133 6.92973 11.9133 6.55992C11.9133 5.24268 10.775 4.11325 9.46659 4.11325H9.37992V3.66659C9.37992 3.11711 8.92939 2.66659 8.37992 2.66659C7.983 2.66659 7.63772 2.90167 7.47659 3.23931C7.31545 2.90167 6.97017 2.66659 6.57325 2.66659C6.02378 2.66659 5.57325 3.11711 5.57325 3.66659V4.11325H4.69992C4.15044 4.11325 3.69992 4.56378 3.69992 5.11325C3.69992 5.66273 4.15044 6.11325 4.69992 6.11325H4.85325V7.99992V9.88659H4.69992C4.15044 9.88659 3.69992 10.3371 3.69992 10.8866C3.69992 11.4361 4.15044 11.8866 4.69992 11.8866H5.57325V12.3333C5.57325 12.8827 6.02378 13.3333 6.57325 13.3333C6.97017 13.3333 7.31545 13.0982 7.47658 12.7605C7.63772 13.0982 7.983 13.3333 8.37992 13.3333C8.92939 13.3333 9.37992 12.8827 9.37992 12.3333Z" fill="#64748B" stroke="#64748B"/>
<path d="M9.47301 6.9934L9.47302 6.99336H9.46661H6.85327V6.10669H7.22661H9.46661C9.56942 6.10669 9.68045 6.15577 9.77486 6.25666C9.87362 6.3622 9.91327 6.48116 9.91327 6.55336C9.91327 6.79849 9.71062 6.99644 9.47301 6.9934Z" fill="#64748B" stroke="#64748B"/>
</svg>
