<svg width="20" height="20" viewBox="0 0 20 20" fill="none" xmlns="http://www.w3.org/2000/svg">
<path d="M19.1666 14.925C19.1833 15.55 19.0166 16.1416 18.7166 16.65C18.55 16.95 18.325 17.225 18.075 17.45C17.5 17.9833 16.7416 18.3083 15.9 18.3333C14.6833 18.3583 13.6083 17.7333 13.0166 16.775C12.7 16.2833 12.5083 15.6917 12.5 15.0667C12.475 14.0167 12.9416 13.0666 13.6916 12.4416C14.2583 11.975 14.975 11.6833 15.7583 11.6666C17.6 11.625 19.125 13.0833 19.1666 14.925Z" stroke="white" stroke-width="1.2" stroke-miterlimit="10" stroke-linecap="round" stroke-linejoin="round"/>
<path d="M14.5327 15.0251L15.3744 15.8251L17.1161 14.1417" stroke="white" stroke-linecap="round" stroke-linejoin="round"/>
<path d="M2.6416 6.19995L9.99992 10.4583L17.3082 6.22492" stroke="white" stroke-width="1.2" stroke-linecap="round" stroke-linejoin="round"/>
<path d="M10 18.0083V10.45" stroke="white" stroke-width="1.2" stroke-linecap="round" stroke-linejoin="round"/>
<path d="M18.0088 7.64151V12.3582C18.0088 12.3999 18.0088 12.4332 18.0005 12.4748C17.4172 11.9665 16.6672 11.6665 15.8338 11.6665C15.0505 11.6665 14.3255 11.9415 13.7505 12.3999C12.9838 13.0082 12.5005 13.9499 12.5005 14.9999C12.5005 15.6249 12.6755 16.2165 12.9838 16.7165C13.0588 16.8499 13.1505 16.9749 13.2505 17.0915L11.7255 17.9332C10.7755 18.4665 9.2255 18.4665 8.2755 17.9332L3.82551 15.4665C2.81717 14.9082 1.99219 13.5082 1.99219 12.3582V7.64151C1.99219 6.49151 2.81717 5.09152 3.82551 4.53319L8.2755 2.0665C9.2255 1.53317 10.7755 1.53317 11.7255 2.0665L16.1755 4.53319C17.1838 5.09152 18.0088 6.49151 18.0088 7.64151Z" stroke="white" stroke-width="1.2" stroke-linecap="round" stroke-linejoin="round"/>
</svg>
