<svg width="20" height="20" viewBox="0 0 20 20" fill="none" xmlns="http://www.w3.org/2000/svg">
<path fill-rule="evenodd" clip-rule="evenodd" d="M7.87097 1.13544C8.16427 1.42793 8.16492 1.90281 7.87244 2.1961L4.85577 5.2211C4.56328 5.5144 4.08841 5.51505 3.79511 5.22257C3.50181 4.93008 3.50116 4.4552 3.79365 4.16191L6.81031 1.13691C7.1028 0.843609 7.57768 0.842954 7.87097 1.13544Z" fill="#0F172A"/>
<path fill-rule="evenodd" clip-rule="evenodd" d="M12.1276 1.13544C12.4209 0.842954 12.8958 0.843609 13.1883 1.13691L16.205 4.16191C16.4974 4.4552 16.4968 4.93008 16.2035 5.22257C15.9102 5.51505 15.4353 5.5144 15.1428 5.2211L12.1262 2.1961C11.8337 1.90281 11.8343 1.42793 12.1276 1.13544Z" fill="#0F172A"/>
<path fill-rule="evenodd" clip-rule="evenodd" d="M2.62401 5.7531C2.58459 5.77951 2.41602 5.89369 2.41602 6.54142C2.41602 6.94169 2.46353 7.16644 2.51 7.28603C2.5464 7.37967 2.57485 7.39371 2.58042 7.39645C2.58073 7.39661 2.58097 7.39673 2.58114 7.39682C2.60611 7.41121 2.67474 7.4388 2.8495 7.45164C2.9833 7.46148 3.11978 7.46045 3.2955 7.45914C3.3626 7.45864 3.43543 7.45809 3.51602 7.45809H16.4827C16.5633 7.45809 16.6361 7.45864 16.7032 7.45914C16.8789 7.46045 17.0154 7.46148 17.1492 7.45164C17.324 7.4388 17.3926 7.41121 17.4176 7.39682C17.4177 7.39673 17.418 7.39661 17.4183 7.39645C17.4238 7.39371 17.4523 7.37968 17.4887 7.28603C17.5352 7.16644 17.5827 6.94169 17.5827 6.54142C17.5827 5.89369 17.4141 5.77951 17.3747 5.7531C17.2546 5.67266 17.0182 5.62476 16.4827 5.62476H3.51602C2.98048 5.62476 2.74412 5.67266 2.62401 5.7531ZM1.78927 4.50682C2.33791 4.13935 3.02655 4.12476 3.51602 4.12476H16.4827C16.9722 4.12476 17.6608 4.13935 18.2094 4.50682C18.8388 4.92834 19.0827 5.64748 19.0827 6.54142C19.0827 7.50557 18.8658 8.29346 18.1666 8.69644C17.8571 8.87476 17.5273 8.9279 17.2591 8.94761C17.0591 8.96231 16.8354 8.96052 16.642 8.95897C16.5859 8.95852 16.5324 8.95809 16.4827 8.95809H3.51602C3.46635 8.95809 3.4128 8.95852 3.35671 8.95897C3.16333 8.96052 2.93961 8.96231 2.73956 8.94761C2.47135 8.9279 2.14155 8.87476 1.83214 8.69644C1.13292 8.29346 0.916016 7.50557 0.916016 6.54142C0.916016 5.64748 1.15994 4.92834 1.78927 4.50682Z" fill="#0F172A"/>
<path fill-rule="evenodd" clip-rule="evenodd" d="M8.13184 10.9165C8.54605 10.9165 8.88184 11.2523 8.88184 11.6665V14.6248C8.88184 15.0391 8.54605 15.3748 8.13184 15.3748C7.71762 15.3748 7.38184 15.0391 7.38184 14.6248V11.6665C7.38184 11.2523 7.71762 10.9165 8.13184 10.9165Z" fill="#0F172A"/>
<path fill-rule="evenodd" clip-rule="evenodd" d="M11.9663 10.9165C12.3805 10.9165 12.7163 11.2523 12.7163 11.6665V14.6248C12.7163 15.0391 12.3805 15.3748 11.9663 15.3748C11.5521 15.3748 11.2163 15.0391 11.2163 14.6248V11.6665C11.2163 11.2523 11.5521 10.9165 11.9663 10.9165Z" fill="#0F172A"/>
<path fill-rule="evenodd" clip-rule="evenodd" d="M17.2241 7.59657C17.6309 7.67459 17.8974 8.06761 17.8194 8.47441L16.4194 15.7742C16.4194 15.7743 16.4194 15.7741 16.4194 15.7742C16.2725 16.5411 16.0756 17.43 15.4472 18.0884C14.7867 18.7805 13.7977 19.0831 12.4078 19.0831H7.3828C6.0693 19.0831 5.0892 18.7547 4.40954 18.0664C3.75104 17.3995 3.49178 16.5079 3.35113 15.6552L2.17592 8.45394C2.10921 8.04514 2.38653 7.65965 2.79533 7.59294C3.20414 7.52622 3.58962 7.80354 3.65634 8.21235L4.83113 15.4111C4.8311 15.4109 4.83116 15.4113 4.83113 15.4111C4.95714 16.1747 5.15214 16.6836 5.47688 17.0124C5.78056 17.32 6.31296 17.5831 7.3828 17.5831H12.4078C13.6096 17.5831 14.108 17.3191 14.3621 17.0528C14.6483 16.753 14.793 16.2918 14.9462 15.4921L16.3462 8.19188C16.4242 7.78508 16.8173 7.51855 17.2241 7.59657Z" fill="#0F172A"/>
</svg>
