<svg width="43" height="12" viewBox="0 0 43 12" fill="none" xmlns="http://www.w3.org/2000/svg">
<path fill-rule="evenodd" clip-rule="evenodd" d="M6.84311 9.05932H5.00018C2.12553 9.05932 4.21398 2.92881 6.63414 2.92881H9.54587C10.0126 2.92881 10.8357 3.01502 11.2412 1.85565L11.8678 0.0546875H7.87501C5.71277 0.0546875 4.02967 0.819385 2.81346 2.10239C0.7126 4.29803 0.000190258 7.72718 0.503809 9.36761C0.982947 10.8849 2.28519 11.884 4.32449 11.9086L5.90932 11.921H7.86277L8.3419 10.4778C8.69811 9.454 7.89949 9.05932 6.84311 9.05932ZM29.2758 6.51832L29.8779 4.557H23.4527C22.384 4.557 21.9048 4.85306 21.7205 5.46981L21.1184 7.43113H27.5438C28.6126 7.43113 29.0917 7.13508 29.2758 6.51832ZM20.1603 9.97213L19.5583 11.9333H25.9834C27.04 11.9333 27.5314 11.6374 27.7157 11.0206L28.3177 9.05932H21.8924C20.836 9.05932 20.3569 9.35537 20.1603 9.97213ZM30.7748 2.02824L31.3767 0.067103H24.9515C23.8827 0.067103 23.4036 0.362978 23.2193 0.979736L22.6172 2.94105H29.0426C30.0991 2.94105 30.5781 2.645 30.7748 2.02824ZM21.0693 2.4231C20.7991 0.597478 19.8286 0.067103 17.4698 0.067103H13.17L10.6638 7.43113H12.2486C13.1945 7.43113 13.6736 7.44337 14.1774 6.08657L15.2215 2.92881H16.8186C18.1824 2.92881 17.8752 4.64339 17.1872 6.30848C16.5729 7.77649 15.5041 9.07156 14.2141 9.07156H11.5483C10.4795 9.07156 9.98811 9.36762 9.79156 9.98437L9.12811 11.9457H11.0814L12.9979 11.9333C14.6933 11.921 16.0815 11.7978 17.7033 10.3297C19.4231 8.76327 21.4134 4.74202 21.0693 2.4231ZM42.6669 0.0546875H38.9445L35.4431 3.79213C35.0377 4.22388 34.62 4.65563 34.2146 5.16135H34.1777L35.9222 0.0546875H32.8877L28.7969 11.9333H31.8312L33.1334 8.19583L34.4848 7.0487L35.5538 10.4285C35.8853 11.477 36.2295 11.9333 36.9665 11.9333H39.2884L36.9051 5.29705L42.6669 0.0546875Z" fill="#00B33C"/>
</svg>
