<svg width="20" height="20" viewBox="0 0 20 20" fill="none" xmlns="http://www.w3.org/2000/svg">
<path d="M9.99992 18.9666C9.09159 18.9666 8.19159 18.6999 7.48325 18.1749L3.89992 15.5C2.94992 14.7916 2.20825 13.3083 2.20825 12.1333V5.93328C2.20825 4.64995 3.14992 3.28328 4.35825 2.83328L8.51659 1.27495C9.34159 0.966618 10.6416 0.966618 11.4666 1.27495L15.6249 2.83328C16.8333 3.28328 17.7749 4.64995 17.7749 5.93328V12.125C17.7749 13.3083 17.0333 14.7833 16.0833 15.4916L12.4999 18.1666C11.8083 18.6999 10.9083 18.9666 9.99992 18.9666ZM8.95825 2.44995L4.79992 4.00828C4.09159 4.27495 3.46659 5.17495 3.46659 5.94162V12.1333C3.46659 12.925 4.02492 14.0333 4.64992 14.5L8.23325 17.175C9.19159 17.8916 10.8083 17.8916 11.7749 17.175L15.3583 14.5C15.9916 14.025 16.5416 12.925 16.5416 12.1333V5.93328C16.5416 5.17495 15.9166 4.27495 15.2083 3.99995L11.0499 2.44162C10.4833 2.24162 9.51659 2.24162 8.95825 2.44995Z" fill="white"/>
<path d="M8.88328 11.8583C8.72495 11.8583 8.56662 11.8 8.44162 11.675L7.09995 10.3333C6.85828 10.0917 6.85828 9.69168 7.09995 9.45002C7.34162 9.20835 7.74162 9.20835 7.98328 9.45002L8.88328 10.35L12.025 7.20835C12.2666 6.96668 12.6666 6.96668 12.9083 7.20835C13.15 7.45002 13.15 7.85002 12.9083 8.09168L9.32495 11.675C9.19995 11.8 9.04162 11.8583 8.88328 11.8583Z" fill="white"/>
</svg>
