<svg width="16" height="16" viewBox="0 0 16 16" fill="none" xmlns="http://www.w3.org/2000/svg">
<path fill-rule="evenodd" clip-rule="evenodd" d="M7.74609 5.91992C7.74609 5.64378 7.96995 5.41992 8.24609 5.41992H11.7461C12.0222 5.41992 12.2461 5.64378 12.2461 5.91992C12.2461 6.19606 12.0222 6.41992 11.7461 6.41992H8.24609C7.96995 6.41992 7.74609 6.19606 7.74609 5.91992Z" fill="#0F172A"/>
<path fill-rule="evenodd" clip-rule="evenodd" d="M6.60648 4.56637C6.80175 4.76163 6.80175 5.07821 6.60648 5.27348L5.10648 6.77348C4.91122 6.96874 4.59464 6.96874 4.39938 6.77348L3.89938 6.27348C3.70411 6.07821 3.70411 5.76163 3.89938 5.56637C4.09464 5.37111 4.41122 5.37111 4.60648 5.56637L4.75293 5.71282L5.89938 4.56637C6.09464 4.37111 6.41122 4.37111 6.60648 4.56637Z" fill="#0F172A"/>
<path fill-rule="evenodd" clip-rule="evenodd" d="M7.74609 10.5859C7.74609 10.3098 7.96995 10.0859 8.24609 10.0859H11.7461C12.0222 10.0859 12.2461 10.3098 12.2461 10.5859C12.2461 10.8621 12.0222 11.0859 11.7461 11.0859H8.24609C7.96995 11.0859 7.74609 10.8621 7.74609 10.5859Z" fill="#0F172A"/>
<path fill-rule="evenodd" clip-rule="evenodd" d="M6.60648 9.23238C6.80175 9.42765 6.80175 9.74423 6.60648 9.93949L5.10648 11.4395C4.91122 11.6348 4.59464 11.6348 4.39938 11.4395L3.89938 10.9395C3.70411 10.7442 3.70411 10.4276 3.89938 10.2324C4.09464 10.0371 4.41122 10.0371 4.60648 10.2324L4.75293 10.3788L5.89938 9.23238C6.09464 9.03712 6.41122 9.03712 6.60648 9.23238Z" fill="#0F172A"/>
<path fill-rule="evenodd" clip-rule="evenodd" d="M2.06279 2.06279C2.95243 1.17314 4.28369 0.833008 5.99967 0.833008H9.99967C11.7157 0.833008 13.0469 1.17314 13.9366 2.06279C14.8262 2.95243 15.1663 4.28369 15.1663 5.99967V9.99967C15.1663 11.7157 14.8262 13.0469 13.9366 13.9366C13.0469 14.8262 11.7157 15.1663 9.99967 15.1663H5.99967C4.28369 15.1663 2.95243 14.8262 2.06279 13.9366C1.17314 13.0469 0.833008 11.7157 0.833008 9.99967V5.99967C0.833008 4.28369 1.17314 2.95243 2.06279 2.06279ZM2.76989 2.76989C2.15954 3.38025 1.83301 4.38232 1.83301 5.99967V9.99967C1.83301 11.617 2.15954 12.6191 2.76989 13.2295C3.38025 13.8398 4.38232 14.1663 5.99967 14.1663H9.99967C11.617 14.1663 12.6191 13.8398 13.2295 13.2295C13.8398 12.6191 14.1663 11.617 14.1663 9.99967V5.99967C14.1663 4.38232 13.8398 3.38025 13.2295 2.76989C12.6191 2.15954 11.617 1.83301 9.99967 1.83301H5.99967C4.38232 1.83301 3.38025 2.15954 2.76989 2.76989Z" fill="#0F172A"/>
</svg>
