<svg width="20" height="20" viewBox="0 0 20 20" fill="none" xmlns="http://www.w3.org/2000/svg">
<path fill-rule="evenodd" clip-rule="evenodd" d="M4.57637 4.57564C4.81069 4.34132 5.19058 4.34132 5.4249 4.57564L10.0006 9.15139L14.5764 4.57564C14.8107 4.34132 15.1906 4.34132 15.4249 4.57564C15.6592 4.80995 15.6592 5.18985 15.4249 5.42417L10.8492 9.99992L15.4249 14.5756C15.6592 14.8099 15.6592 15.1898 15.4249 15.4241C15.1906 15.6585 14.8107 15.6585 14.5763 15.4241L10.0006 10.8484L5.4249 15.4242C5.19058 15.6585 4.81069 15.6585 4.57637 15.4242C4.34206 15.1899 4.34206 14.81 4.57637 14.5757L9.15212 9.99992L4.57637 5.42417C4.34206 5.18985 4.34206 4.80995 4.57637 4.57564Z" fill="#0F172A"/>
</svg>
