<svg width="172" height="56" viewBox="0 0 172 56" fill="none" xmlns="http://www.w3.org/2000/svg">
<path fill-rule="evenodd" clip-rule="evenodd" d="M23.0166 12.9967C22.7076 6.33792 26.7248 1.2034 33.9867 0C34.2957 7.38086 29.1969 13.1572 23.0166 12.9967ZM35.5847 38.9613V34.6049H19.4334V40.4849H27.7746L27.748 41.0996C27.5887 45.8836 23.9493 49.1177 18.7162 49.1177C12.3407 49.1177 8.30292 44.0129 8.30292 35.6472C8.30292 27.4421 12.1016 22.6045 18.424 22.6045C22.7539 22.6045 26.0213 25.0099 27.1901 29.0457H35.2392C34.0969 21.2413 27.3496 15.9227 18.3974 15.9227C7.1341 15.9227 0.121094 23.4064 0.121094 35.7541C0.121094 48.2891 7.1341 55.8261 18.5834 55.8261C29.2623 55.8261 35.5847 49.4651 35.5847 38.9613ZM39.463 44.1731C39.702 51.4162 45.5728 55.8261 54.7907 55.8261C64.3007 55.8261 70.3307 51.0954 70.3307 43.6118C70.3307 37.732 66.9837 34.4177 59.3066 32.7607L54.6578 31.7718C50.2482 30.7562 48.3886 29.4198 48.3886 27.0411C48.3886 24.1813 51.045 22.2838 55.0031 22.2838C59.0143 22.2838 61.8567 24.2615 62.1225 27.5221H69.64C69.5074 20.5466 63.9023 15.9227 54.9765 15.9227C46.4227 15.9227 40.313 20.6268 40.313 27.736C40.313 33.3754 43.7929 36.9836 50.8592 38.507L55.8532 39.6028C60.4755 40.6451 62.3083 42.035 62.3083 44.5474C62.3083 47.3805 59.3864 49.4384 55.1094 49.4384C50.8592 49.4384 47.565 47.3537 47.1932 44.1731H39.463ZM76.786 19.1834V25.7316H72.8279V31.6381H76.786V47.22C76.786 52.9664 79.4424 55.2649 86.2163 55.2649C87.7835 55.2649 89.165 55.1045 89.962 54.944V49.171C89.4836 49.2512 88.7134 49.3047 88.0227 49.3047C85.6584 49.3047 84.5427 48.2089 84.5427 45.9371V31.6381H89.962V25.7316H84.5427V19.1834H76.786ZM107.335 55.6657C116.207 55.6657 121.76 49.9729 121.76 40.4314C121.76 30.9967 116.154 25.2236 107.335 25.2236C98.5423 25.2236 92.9105 31.0234 92.9105 40.4314C92.9105 49.9461 98.4626 55.6657 107.335 55.6657ZM107.335 49.6522C103.244 49.6522 100.774 46.2847 100.774 40.4314C100.774 34.6583 103.244 31.2106 107.335 31.2106C111.399 31.2106 113.87 34.6316 113.87 40.4314C113.87 46.2847 111.426 49.6522 107.335 49.6522ZM125.93 55.1579H133.687V38.6941C133.687 34.5781 135.998 32.1192 139.929 32.1192C141.072 32.1192 142.134 32.3064 142.798 32.5737V25.6781C142.241 25.491 141.444 25.384 140.54 25.384C137.087 25.384 134.564 27.3619 133.581 30.9967H133.421V25.7316H125.93V55.1579ZM158.206 31.0501C161.792 31.0501 164.289 33.5626 164.422 37.4112H151.804C152.069 33.6428 154.673 31.0501 158.206 31.0501ZM164.528 46.1777C163.784 48.4495 161.473 49.8392 158.551 49.8392C154.46 49.8392 151.724 46.9794 151.724 42.7299V42.2489H171.913V39.8434C171.913 30.8899 166.547 25.2236 158.126 25.2236C149.546 25.2236 144.074 31.2106 144.074 40.5651C144.074 49.9194 149.519 55.6657 158.418 55.6657C165.538 55.6657 170.824 51.8706 171.674 46.1777H164.528Z" fill="url(#paint0_linear_4011_14727)"/>
<defs>
<linearGradient id="paint0_linear_4011_14727" x1="0.20978" y1="13.9512" x2="172.001" y2="13.9512" gradientUnits="userSpaceOnUse">
<stop stop-color="#43CADC"/>
<stop offset="0.484375" stop-color="#7B88FD"/>
<stop offset="1" stop-color="#EF4158"/>
</linearGradient>
</defs>
</svg>
