<svg width="16" height="16" viewBox="0 0 16 16" fill="none" xmlns="http://www.w3.org/2000/svg">
<path fill-rule="evenodd" clip-rule="evenodd" d="M5.73779 1.73876C6.40243 1.07412 7.38369 0.833984 8.59967 0.833984H11.3997C12.6157 0.833984 13.5969 1.07412 14.2616 1.73876C14.9262 2.40341 15.1663 3.38467 15.1663 4.60065V7.40065C15.1663 8.61663 14.9262 9.59789 14.2616 10.2625C13.5969 10.9272 12.6157 11.1673 11.3997 11.1673H10.6663C10.3902 11.1673 10.1663 10.9435 10.1663 10.6673V8.60065C10.1663 7.4833 9.93981 6.83122 9.55445 6.44587C9.1691 6.06052 8.51703 5.83398 7.39967 5.83398H5.33301C5.05687 5.83398 4.83301 5.61013 4.83301 5.33398V4.60065C4.83301 3.38467 5.07314 2.40341 5.73779 1.73876ZM6.44489 2.44587C6.05954 2.83123 5.83301 3.4833 5.83301 4.60065V4.83398H7.39967C8.61566 4.83398 9.59692 5.07412 10.2616 5.73876C10.9262 6.40341 11.1663 7.38467 11.1663 8.60065V10.1673H11.3997C12.517 10.1673 13.1691 9.94078 13.5545 9.55543C13.9398 9.17008 14.1663 8.518 14.1663 7.40065V4.60065C14.1663 3.4833 13.9398 2.83123 13.5545 2.44587C13.1691 2.06052 12.517 1.83398 11.3997 1.83398H8.59967C7.48232 1.83398 6.83025 2.06052 6.44489 2.44587Z" fill="#0F172A"/>
<path fill-rule="evenodd" clip-rule="evenodd" d="M1.73779 5.73876C2.40243 5.07412 3.38369 4.83398 4.59967 4.83398H7.39967C8.61566 4.83398 9.59692 5.07412 10.2616 5.73876C10.9262 6.40341 11.1663 7.38467 11.1663 8.60065V11.4007C11.1663 12.6166 10.9262 13.5979 10.2616 14.2625C9.59692 14.9272 8.61566 15.1673 7.39967 15.1673H4.59967C3.38369 15.1673 2.40243 14.9272 1.73779 14.2625C1.07314 13.5979 0.833008 12.6166 0.833008 11.4007V8.60065C0.833008 7.38467 1.07314 6.40341 1.73779 5.73876ZM2.44489 6.44587C2.05954 6.83123 1.83301 7.4833 1.83301 8.60065V11.4007C1.83301 12.518 2.05954 13.1701 2.44489 13.5554C2.83025 13.9408 3.48232 14.1673 4.59967 14.1673H7.39967C8.51703 14.1673 9.1691 13.9408 9.55445 13.5554C9.93981 13.1701 10.1663 12.518 10.1663 11.4007V8.60065C10.1663 7.4833 9.93981 6.83123 9.55445 6.44587C9.1691 6.06052 8.51703 5.83398 7.39967 5.83398H4.59967C3.48232 5.83398 2.83025 6.06052 2.44489 6.44587Z" fill="#0F172A"/>
<path fill-rule="evenodd" clip-rule="evenodd" d="M8.29917 8.34716C8.49468 8.54218 8.49509 8.85876 8.30008 9.05427L5.70674 11.6543C5.61301 11.7482 5.48577 11.8011 5.35306 11.8012C5.22034 11.8013 5.09303 11.7486 4.99918 11.6547L3.69918 10.3547C3.50392 10.1595 3.50392 9.84288 3.69918 9.64762C3.89444 9.45236 4.21103 9.45236 4.40629 9.64762L5.35228 10.5936L7.59206 8.34807C7.78707 8.15256 8.10365 8.15215 8.29917 8.34716Z" fill="#0F172A"/>
</svg>
