<svg width="16" height="16" viewBox="0 0 16 16" fill="none" xmlns="http://www.w3.org/2000/svg">
<path fill-rule="evenodd" clip-rule="evenodd" d="M2.43151 2.66602C2.43953 2.66602 2.44757 2.66602 2.45564 2.66602L4.30482 2.66602C4.56802 2.666 4.80431 2.66599 5.0008 2.68205C5.21109 2.69923 5.43372 2.73809 5.65177 2.84919C5.96771 3.01017 6.22515 3.26714 6.38641 3.58364C6.49757 3.80179 6.53636 4.02455 6.55351 4.23481C6.56951 4.43098 6.56949 4.66688 6.56947 4.92955V10.43C6.56947 12.4781 4.90918 14.1384 2.8611 14.1384C2.49291 14.1384 2.19443 13.8399 2.19443 13.4717C2.19443 13.1035 2.49291 12.805 2.8611 12.805C4.1728 12.805 5.23614 11.7417 5.23614 10.43L5.23614 9.06884L2.43169 9.06886C2.16837 9.06888 1.93194 9.06889 1.73532 9.05283C1.52502 9.03565 1.30224 8.99681 1.08412 8.88568C0.767802 8.7245 0.510869 8.4674 0.349799 8.15128C0.238673 7.93318 0.199836 7.71046 0.182655 7.50017C0.166599 7.30363 0.166612 7.06729 0.166627 6.80407L0.166628 4.9549C0.166628 4.94683 0.166627 4.93878 0.166627 4.93076C0.166612 4.66754 0.166599 4.43122 0.182656 4.2347C0.199839 4.0244 0.238681 3.80172 0.349799 3.58363C0.510833 3.26759 0.76773 3.0104 1.08412 2.84919C1.30225 2.73805 1.52504 2.69922 1.73533 2.68204C1.9319 2.66599 2.16827 2.666 2.43151 2.66602ZM1.53781 4.18896C1.53757 4.18941 1.53381 4.19658 1.52883 4.21774C1.52324 4.24145 1.51673 4.28003 1.51156 4.34328C1.50048 4.4789 1.49996 4.65998 1.49996 4.9549V6.77993C1.49996 7.07485 1.50048 7.25596 1.51156 7.3916C1.51673 7.45487 1.52325 7.49345 1.52883 7.51718C1.53392 7.5388 1.53772 7.54579 1.53781 7.54596C1.57115 7.6114 1.62421 7.66443 1.68944 7.69767C1.68986 7.69789 1.69701 7.70165 1.71822 7.70664C1.74198 7.71223 1.78059 7.71875 1.84389 7.72392C1.97957 7.73501 2.16073 7.73553 2.45564 7.73553L5.23614 7.73551V4.9549C5.23614 4.65992 5.23565 4.47884 5.22459 4.34318C5.21943 4.27991 5.21292 4.24135 5.20734 4.21764C5.20236 4.19647 5.19862 4.18937 5.19841 4.18897C5.16526 4.12391 5.11206 4.07063 5.04645 4.0372C5.04624 4.03709 5.03924 4.03329 5.01766 4.02821C4.99396 4.02263 4.95541 4.01612 4.89219 4.01095C4.75662 3.99987 4.57559 3.99935 4.28066 3.99935H2.45564C2.16072 3.99935 1.97956 3.99987 1.84387 4.01095C1.78058 4.01612 1.74196 4.02264 1.71821 4.02823C1.69699 4.03323 1.68986 4.03698 1.68946 4.03719C1.62429 4.07039 1.57119 4.12345 1.53781 4.18896ZM11.5566 2.66602H13.4299C13.6931 2.666 13.9294 2.66599 14.1259 2.68205C14.3362 2.69923 14.5588 2.73809 14.7769 2.84919C15.0928 3.01017 15.3503 3.26714 15.5115 3.58364C15.6227 3.80179 15.6615 4.02455 15.6786 4.23481C15.6946 4.43098 15.6946 4.66688 15.6946 4.92955V10.43C15.6946 12.4781 14.0343 14.1384 11.9862 14.1384C11.618 14.1384 11.3196 13.8399 11.3196 13.4717C11.3196 13.1035 11.618 12.805 11.9862 12.805C13.2979 12.805 14.3613 11.7417 14.3613 10.43V9.06884L11.5568 9.06886C11.2935 9.06888 11.0571 9.06889 10.8604 9.05283C10.6501 9.03565 10.4274 8.99681 10.2092 8.88568C9.89292 8.7245 9.63599 8.4674 9.47492 8.15128C9.3638 7.93318 9.32496 7.71046 9.30778 7.50017C9.29172 7.30363 9.29173 7.06728 9.29175 6.80406V4.93074C9.29173 4.66753 9.29172 4.43121 9.30778 4.2347C9.32496 4.0244 9.3638 3.80172 9.47492 3.58364C9.63595 3.26759 9.89285 3.0104 10.2092 2.84919C10.4274 2.73805 10.6502 2.69922 10.8605 2.68204C11.057 2.66599 11.2934 2.666 11.5566 2.66602ZM14.3613 7.73551V4.9549C14.3613 4.65992 14.3608 4.47884 14.3497 4.34318C14.3446 4.27991 14.338 4.24135 14.3325 4.21764C14.3274 4.19606 14.3236 4.1891 14.3235 4.18896C14.2904 4.12389 14.2372 4.07063 14.1716 4.0372C14.1711 4.03694 14.1639 4.03319 14.1428 4.02821C14.1191 4.02263 14.0805 4.01612 14.0173 4.01095C13.8817 3.99987 13.7007 3.99935 13.4058 3.99935H11.5808C11.2858 3.99935 11.1047 3.99987 10.969 4.01095C10.9057 4.01612 10.8671 4.02264 10.8433 4.02823C10.8221 4.03323 10.815 4.03698 10.8146 4.03719C10.7494 4.07039 10.6963 4.12345 10.6629 4.18896C10.6627 4.18943 10.6589 4.1966 10.654 4.21774C10.6484 4.24145 10.6419 4.28003 10.6367 4.34328C10.6256 4.4789 10.6251 4.65998 10.6251 4.9549V6.77993C10.6251 7.07485 10.6256 7.25596 10.6367 7.3916C10.6419 7.45487 10.6484 7.49345 10.654 7.51718C10.6589 7.53838 10.6627 7.54551 10.6629 7.54594C10.6963 7.61138 10.7493 7.66443 10.8146 7.69767C10.8147 7.69774 10.8217 7.70154 10.8433 7.70664C10.8671 7.71223 10.9057 7.71875 10.969 7.72392C11.1047 7.73501 11.2859 7.73553 11.5808 7.73553L14.3613 7.73551Z" fill="white"/>
</svg>
