<svg width="16" height="16" viewBox="0 0 16 16" fill="none" xmlns="http://www.w3.org/2000/svg">
<path fill-rule="evenodd" clip-rule="evenodd" d="M3.55335 1.82011C3.0935 1.82011 2.68668 2.19656 2.68668 2.75344V4.30011C2.68668 4.41248 2.7276 4.59496 2.82046 4.80195C2.91153 5.00493 3.03296 5.18753 3.15276 5.30734L3.16127 5.31606L5.72127 8.00942C5.72934 8.01791 5.73709 8.02669 5.74452 8.03575C5.91814 8.24749 6.07625 8.52735 6.19162 8.81626C6.3062 9.10316 6.39335 9.43573 6.39335 9.75344V13.3201C6.39335 13.9964 7.16822 14.4131 7.74403 14.0607L8.67973 13.4568C8.90246 13.313 9.19956 13.3771 9.34331 13.5998C9.48707 13.8225 9.42305 14.1196 9.20031 14.2634L8.2525 14.8751C7.082 15.5989 5.43335 14.8023 5.43335 13.3201V9.75344C5.43335 9.59781 5.38717 9.39038 5.30008 9.17229C5.21668 8.96343 5.10936 8.77883 5.01225 8.65692L2.46934 5.98154C2.25121 5.76196 2.07095 5.4766 1.94457 5.19491C1.8191 4.91524 1.72668 4.5944 1.72668 4.30011V2.75344C1.72668 1.69698 2.5332 0.860107 3.55335 0.860107H12.4467C13.4518 0.860107 14.2734 1.6817 14.2734 2.68679V4.16677C14.2734 4.52797 14.1625 4.90111 14.0183 5.21692C13.8736 5.53405 13.6753 5.83697 13.4594 6.05285C13.272 6.2403 12.9681 6.2403 12.7806 6.05285C12.5932 5.8654 12.5932 5.56148 12.7806 5.37403C12.8981 5.25658 13.0364 5.05616 13.145 4.81829C13.2542 4.5791 13.3134 4.34556 13.3134 4.16677V2.68679C13.3134 2.21188 12.9216 1.82011 12.4467 1.82011H3.55335Z" fill="#DC2626"/>
<path fill-rule="evenodd" clip-rule="evenodd" d="M11.2534 7.14677C9.77179 7.14677 8.56669 8.35186 8.56669 9.83343C8.56669 10.3374 8.70839 10.8165 8.95469 11.2139L8.9586 11.2202L8.95855 11.2203C9.42226 11.995 10.2759 12.5201 11.2534 12.5201C12.2324 12.5201 13.0846 12.0004 13.5474 11.2216L13.5504 11.2165L13.5504 11.2165C13.7991 10.8095 13.94 10.3358 13.94 9.83343C13.94 8.35186 12.7349 7.14677 11.2534 7.14677ZM7.60669 9.83343C7.60669 7.82167 9.24159 6.18677 11.2534 6.18677C13.2651 6.18677 14.9 7.82167 14.9 9.83343C14.9 10.5167 14.7082 11.162 14.3712 11.7145C13.7402 12.7743 12.58 13.4801 11.2534 13.4801C9.92544 13.4801 8.76679 12.7667 8.13673 11.7165C7.79759 11.1679 7.60669 10.5149 7.60669 9.83343Z" fill="#DC2626"/>
<path fill-rule="evenodd" clip-rule="evenodd" d="M10.087 8.6473C10.2745 8.45985 10.5784 8.45985 10.7658 8.6473L12.4392 10.3206C12.6266 10.5081 12.6266 10.812 12.4392 10.9995C12.2517 11.1869 11.9478 11.1869 11.7603 10.9995L10.087 9.32612C9.89955 9.13867 9.89955 8.83475 10.087 8.6473Z" fill="#DC2626"/>
<path fill-rule="evenodd" clip-rule="evenodd" d="M12.4265 8.66732C12.6139 8.85477 12.6139 9.15869 12.4265 9.34614L10.7531 11.0195C10.5657 11.2069 10.2618 11.2069 10.0743 11.0195C9.88685 10.832 9.88685 10.5281 10.0743 10.3407L11.7476 8.66732C11.9351 8.47987 12.239 8.47987 12.4265 8.66732Z" fill="#DC2626"/>
<path fill-rule="evenodd" clip-rule="evenodd" d="M3.55335 1.81339C3.0935 1.81339 2.68668 2.18984 2.68668 2.74672V4.30007C2.68668 4.40674 2.72785 4.58829 2.82265 4.79872C2.91525 5.00424 3.0378 5.19 3.15611 5.31067L3.16131 5.31598L5.72127 8.00938C5.73067 8.01927 5.73964 8.02956 5.74817 8.04021C5.91548 8.24935 6.07255 8.52669 6.18861 8.81495C6.3036 9.10052 6.39335 9.43392 6.39335 9.7534V13.32C6.39335 13.9964 7.16822 14.413 7.74403 14.0607L8.67973 13.4568C8.68529 13.4532 8.69094 13.4497 8.69665 13.4463C8.7622 13.4078 8.86012 13.3067 8.9446 13.1435C9.02052 12.9969 9.05988 12.8493 9.06588 12.7416C8.68742 12.4641 8.37338 12.1124 8.1358 11.7149C7.79863 11.1623 7.60668 10.5168 7.60668 9.8334C7.60668 7.82163 9.24159 6.18673 11.2534 6.18673C11.4406 6.18673 11.6262 6.20087 11.8074 6.22974L12.7883 5.3659C12.9055 5.24273 13.0395 5.04433 13.1448 4.81291C13.2542 4.57246 13.3134 4.33883 13.3134 4.16005V2.68007C13.3134 2.20516 12.9216 1.81339 12.4467 1.81339H3.55335ZM1.72668 2.74672C1.72668 1.69027 2.5332 0.853394 3.55335 0.853394H12.4467C13.4518 0.853394 14.2734 1.67498 14.2734 2.68007V4.16005C14.2734 4.52128 14.1625 4.89432 14.0186 5.21055C13.8739 5.52847 13.6764 5.83154 13.4628 6.04943C13.4546 6.0578 13.4461 6.06587 13.4373 6.07362L12.2639 7.10695C12.1464 7.21044 11.9858 7.25011 11.8336 7.21321C11.6533 7.1695 11.4581 7.14673 11.2534 7.14673C9.77178 7.14673 8.56668 8.35182 8.56668 9.8334C8.56668 10.3357 8.70758 10.8095 8.95626 11.2164L8.95889 11.2207C9.16795 11.5711 9.45391 11.8669 9.79751 12.0775C9.93989 12.1647 10.0267 12.3197 10.0267 12.4867V12.7134C10.0267 13.0108 9.93267 13.3231 9.7971 13.5849C9.66482 13.8404 9.46266 14.106 9.19303 14.268L8.2525 14.8751C7.082 15.5988 5.43335 14.8023 5.43335 13.32V9.7534C5.43335 9.59954 5.38644 9.39294 5.29809 9.17351C5.2142 8.96518 5.10661 8.7791 5.01015 8.65468L2.46782 5.97991C2.25402 5.76094 2.07424 5.47464 1.94738 5.19305C1.82219 4.91517 1.72668 4.59339 1.72668 4.30007V2.74672Z" fill="#DC2626"/>
</svg>
