<svg width="19" height="30" viewBox="0 0 19 30" fill="none" xmlns="http://www.w3.org/2000/svg">
<path fill-rule="evenodd" clip-rule="evenodd" d="M11.9672 6.79326C11.8057 3.31276 13.9055 0.629005 17.7012 0C17.8627 3.8579 15.1976 6.87713 11.9672 6.79326ZM18.5364 20.3647V18.0877H10.0944V21.1611H14.4542L14.4403 21.4824C14.3571 23.983 12.4548 25.6734 9.71946 25.6734C6.38707 25.6734 4.27656 23.0051 4.27656 18.6325C4.27656 14.3438 6.2621 11.8152 9.56673 11.8152C11.8299 11.8152 13.5378 13.0725 14.1487 15.182H18.3559C17.7588 11.1027 14.232 8.32271 9.55284 8.32271C3.66563 8.32271 0 12.2343 0 18.6884C0 25.2403 3.66562 29.1798 9.65003 29.1798C15.2318 29.1798 18.5364 25.855 18.5364 20.3647Z" fill="white"/>
</svg>
