<svg width="16" height="16" viewBox="0 0 16 16" fill="none" xmlns="http://www.w3.org/2000/svg">
<path fill-rule="evenodd" clip-rule="evenodd" d="M2.14746 6.66602C2.14746 6.38987 2.37132 6.16602 2.64746 6.16602H13.3141C13.5903 6.16602 13.8141 6.38987 13.8141 6.66602V11.9993C13.8141 13.027 13.6493 13.8713 13.0843 14.4362C12.5194 15.0012 11.6752 15.166 10.6475 15.166H5.31413C4.28643 15.166 3.44219 15.0012 2.87724 14.4362C2.31229 13.8713 2.14746 13.027 2.14746 11.9993V6.66602ZM3.14746 7.16602V11.9993C3.14746 12.9717 3.31596 13.4607 3.58435 13.7291C3.85273 13.9975 4.34183 14.166 5.31413 14.166H10.6475C11.6198 14.166 12.1089 13.9975 12.3772 13.7291C12.6456 13.4607 12.8141 12.9717 12.8141 11.9993V7.16602H3.14746Z" fill="white"/>
<path fill-rule="evenodd" clip-rule="evenodd" d="M2.3318 4.0479C2.23428 4.1624 2.16699 4.35823 2.16699 4.66536V5.33203C2.16699 5.63917 2.23428 5.83499 2.3318 5.94949C2.41626 6.04865 2.59058 6.16536 3.00033 6.16536H13.0003C13.3842 6.16536 13.5644 6.05197 13.6577 5.945C13.7619 5.82562 13.8337 5.62696 13.8337 5.33203V4.66536C13.8337 4.37044 13.7619 4.17177 13.6577 4.0524C13.5644 3.94543 13.3842 3.83203 13.0003 3.83203H3.00033C2.59058 3.83203 2.41626 3.94874 2.3318 4.0479ZM1.57051 3.39949C1.89772 3.01532 2.39007 2.83203 3.00033 2.83203H13.0003C13.5965 2.83203 14.0829 3.01864 14.4113 3.395C14.7288 3.75896 14.8337 4.22696 14.8337 4.66536V5.33203C14.8337 5.77044 14.7288 6.23844 14.4113 6.6024C14.0829 6.97876 13.5965 7.16536 13.0003 7.16536H3.00033C2.39007 7.16536 1.89772 6.98208 1.57051 6.5979C1.25637 6.22907 1.16699 5.75823 1.16699 5.33203V4.66536C1.16699 4.23917 1.25637 3.76833 1.57051 3.39949Z" fill="white"/>
<path fill-rule="evenodd" clip-rule="evenodd" d="M5.59354 1.87254C5.54214 1.82113 5.45205 1.82113 5.40065 1.87254L4.45398 2.8192C4.44977 2.82342 4.4459 2.8278 4.44239 2.83232H6.55332L5.59354 1.87254ZM4.69354 1.16543C5.13547 0.723502 5.85872 0.723502 6.30065 1.16543L8.11398 2.97876C8.25698 3.12176 8.29976 3.33682 8.22237 3.52366C8.14498 3.7105 7.96266 3.83232 7.76043 3.83232H4.08043C3.94049 3.83232 3.80695 3.77367 3.71226 3.67063C3.30414 3.22649 3.3176 2.54138 3.74687 2.1121L4.69354 1.16543Z" fill="white"/>
<path fill-rule="evenodd" clip-rule="evenodd" d="M10.5932 1.87254C10.5418 1.82113 10.4517 1.82113 10.4003 1.87254L9.44052 2.83232H11.5515C11.5479 2.8278 11.5441 2.82342 11.5399 2.8192L10.5932 1.87254ZM9.69319 1.16543C10.1351 0.723502 10.8584 0.723502 11.3003 1.16543L12.247 2.1121C12.6762 2.54138 12.6897 3.22649 12.2816 3.67063C12.1869 3.77367 12.0534 3.83232 11.9134 3.83232H8.23341C8.03118 3.83232 7.84886 3.7105 7.77147 3.52366C7.69408 3.33682 7.73686 3.12176 7.87986 2.97876L9.69319 1.16543Z" fill="white"/>
<path fill-rule="evenodd" clip-rule="evenodd" d="M5.45996 6.66602C5.45996 6.38987 5.68382 6.16602 5.95996 6.16602H9.97996C10.2561 6.16602 10.48 6.38987 10.48 6.66602V10.086C10.48 11.0213 9.43936 11.5688 8.66928 11.0554L8.66713 11.0539L8.07594 10.6554C8.07571 10.6552 8.07618 10.6555 8.07594 10.6554C8.02671 10.623 7.95613 10.618 7.89287 10.6583L7.26338 11.0735C6.49059 11.5695 5.45996 11.0293 5.45996 10.0927V6.66602ZM6.45996 7.16602V10.0927C6.45996 10.2221 6.60124 10.3084 6.72139 10.2331L7.34833 9.81955C7.73776 9.56756 8.24024 9.56306 8.63064 9.82332L8.63279 9.82476L9.22472 10.2238C9.33455 10.2962 9.47996 10.2171 9.47996 10.086V7.16602H6.45996Z" fill="white"/>
</svg>
