<svg width="20" height="20" viewBox="0 0 20 20" fill="none" xmlns="http://www.w3.org/2000/svg">
<path fill-rule="evenodd" clip-rule="evenodd" d="M10.2083 2.29102C5.95114 2.29102 2.5 5.74215 2.5 9.99935C2.5 14.2565 5.95114 17.7077 10.2083 17.7077C14.4655 17.7077 17.9167 14.2565 17.9167 9.99935C17.9167 5.74215 14.4655 2.29102 10.2083 2.29102ZM1.25 9.99935C1.25 5.0518 5.26078 1.04102 10.2083 1.04102C15.1559 1.04102 19.1667 5.0518 19.1667 9.99935C19.1667 14.9469 15.1559 18.9577 10.2083 18.9577C5.26078 18.9577 1.25 14.9469 1.25 9.99935Z" fill="white"/>
<path fill-rule="evenodd" clip-rule="evenodd" d="M6.24967 2.5C6.24967 2.15482 6.5295 1.875 6.87467 1.875H7.70801C7.90897 1.875 8.09767 1.97163 8.21513 2.13469C8.33259 2.29774 8.36448 2.50733 8.30083 2.69795C6.71873 7.43614 6.71873 12.5639 8.30083 17.3021C8.36448 17.4927 8.33259 17.7023 8.21513 17.8653C8.09767 18.0284 7.90897 18.125 7.70801 18.125H6.87467C6.5295 18.125 6.24967 17.8452 6.24967 17.5C6.24967 17.1609 6.51979 16.8848 6.85662 16.8753C5.53347 12.3884 5.53347 7.61158 6.85662 3.12474C6.51979 3.11519 6.24967 2.83914 6.24967 2.5Z" fill="white"/>
<path fill-rule="evenodd" clip-rule="evenodd" d="M12.511 1.90734C12.8384 1.79802 13.1924 1.97481 13.3017 2.30222C14.9696 7.29737 14.9696 12.703 13.3017 17.6981C13.1924 18.0255 12.8384 18.2023 12.511 18.093C12.1836 17.9837 12.0068 17.6296 12.1161 17.3022C13.6982 12.564 13.6982 7.43631 12.1161 2.69812C12.0068 2.37071 12.1836 2.01667 12.511 1.90734Z" fill="white"/>
<path fill-rule="evenodd" clip-rule="evenodd" d="M2.34343 11.9929C2.50648 11.8754 2.71607 11.8435 2.90669 11.9072C7.64488 13.4893 12.7726 13.4893 17.5108 11.9072C17.7014 11.8435 17.911 11.8754 18.0741 11.9929C18.2371 12.1103 18.3337 12.299 18.3337 12.5V13.3333C18.3337 13.6785 18.0539 13.9583 17.7087 13.9583C17.3696 13.9583 17.0936 13.6882 17.084 13.3514C12.5972 14.6745 7.82032 14.6745 3.33348 13.3514C3.32393 13.6882 3.04788 13.9583 2.70874 13.9583C2.36356 13.9583 2.08374 13.6785 2.08374 13.3333V12.5C2.08374 12.299 2.18037 12.1103 2.34343 11.9929Z" fill="white"/>
<path fill-rule="evenodd" clip-rule="evenodd" d="M17.511 8.09283C12.7728 6.51072 7.64505 6.51072 2.90686 8.09283C2.57945 8.20215 2.22541 8.02536 2.11608 7.69795C2.00676 7.37054 2.18355 7.0165 2.51096 6.90717C7.50611 5.23928 12.9117 5.23928 17.9069 6.90717C18.2343 7.0165 18.4111 7.37054 18.3017 7.69795C18.1924 8.02536 17.8384 8.20215 17.511 8.09283Z" fill="white"/>
</svg>
