<svg width="176" height="56" viewBox="0 0 176 56" fill="none" xmlns="http://www.w3.org/2000/svg">
<path fill-rule="evenodd" clip-rule="evenodd" d="M35.5842 34.6049V38.9613C35.5842 49.4651 29.2618 55.8261 18.5829 55.8261C7.13361 55.8261 0.120605 48.2891 0.120605 35.7541C0.120605 23.4064 7.13361 15.9227 18.3969 15.9227C27.3491 15.9227 34.0964 21.2413 35.2387 29.0457H27.1896C26.0208 25.0099 22.7534 22.6045 18.4235 22.6045C12.1011 22.6045 8.30243 27.4421 8.30243 35.6472C8.30243 44.0129 12.3402 49.1177 18.7157 49.1177C23.9488 49.1177 27.5883 45.8836 27.7475 41.0996L27.7741 40.4849H19.4329V34.6049H35.5842ZM54.7902 55.8261C45.5723 55.8261 39.7015 51.4162 39.4625 44.1731H47.1927C47.5645 47.3537 50.8587 49.4384 55.1089 49.4384C59.3859 49.4384 62.3078 47.3805 62.3078 44.5474C62.3078 42.035 60.475 40.6451 55.8528 39.6028L50.8587 38.507C43.7925 36.9836 40.3125 33.3754 40.3125 27.736C40.3125 20.6268 46.4223 15.9227 54.976 15.9227C63.9018 15.9227 69.5069 20.5466 69.6395 27.5221H62.122C61.8562 24.2615 59.0138 22.2838 55.0026 22.2838C51.0445 22.2838 48.3881 24.1813 48.3881 27.0411C48.3881 29.4198 50.2477 30.7562 54.6573 31.7718L59.3061 32.7607C66.9832 34.4177 70.3303 37.732 70.3303 43.6118C70.3303 51.0954 64.3002 55.8261 54.7902 55.8261ZM76.7855 25.7316V19.1834H84.5422V25.7316H89.9615V31.6381H84.5422V45.9371C84.5422 48.2089 85.6579 49.3047 88.0222 49.3047C88.7129 49.3047 89.4832 49.2512 89.9615 49.171V54.944C89.1645 55.1045 87.783 55.2649 86.2158 55.2649C79.4419 55.2649 76.7855 52.9664 76.7855 47.22V31.6381H72.8274V25.7316H76.7855ZM121.759 40.4314C121.759 49.9729 116.207 55.6657 107.335 55.6657C98.4621 55.6657 92.91 49.9461 92.91 40.4314C92.91 31.0234 98.5418 25.2236 107.335 25.2236C116.154 25.2236 121.759 30.9967 121.759 40.4314ZM100.773 40.4314C100.773 46.2847 103.244 49.6522 107.335 49.6522C111.425 49.6522 113.869 46.2847 113.869 40.4314C113.869 34.6316 111.399 31.2106 107.335 31.2106C103.244 31.2106 100.773 34.6583 100.773 40.4314ZM133.686 55.1579H125.93V25.7316H133.421V30.9967H133.58C134.563 27.3619 137.087 25.384 140.54 25.384C141.443 25.384 142.24 25.491 142.798 25.6781V32.5737C142.134 32.3064 141.071 32.1192 139.929 32.1192C135.997 32.1192 133.686 34.5781 133.686 38.6941V55.1579ZM164.421 37.4112C164.288 33.5626 161.792 31.0501 158.205 31.0501C154.672 31.0501 152.069 33.6428 151.803 37.4112H164.421ZM158.551 49.8392C161.473 49.8392 163.784 48.4495 164.528 46.1777H171.673C170.823 51.8706 165.537 55.6657 158.418 55.6657C149.519 55.6657 144.073 49.9194 144.073 40.5651C144.073 31.2106 149.545 25.2236 158.126 25.2236C166.547 25.2236 171.913 30.8899 171.913 39.8434V42.2489H151.724V42.7299C151.724 46.9794 154.46 49.8392 158.551 49.8392Z" fill="white"/>
<path d="M23.0166 12.9967C22.7076 6.33791 26.7248 1.2034 33.9867 0C34.2957 7.38086 29.1969 13.1572 23.0166 12.9967Z" fill="white"/>
</svg>
