<svg width="20" height="20" viewBox="0 0 20 20" fill="none" xmlns="http://www.w3.org/2000/svg">
<path fill-rule="evenodd" clip-rule="evenodd" d="M6.29935 3.33325C4.15873 3.33325 2.41602 5.07729 2.41602 7.24158C2.41602 9.90877 3.6467 12.0494 5.20483 13.6459C6.77201 15.2516 8.62429 16.2561 9.72499 16.6318L9.73231 16.6343L9.7323 16.6343C9.76873 16.6472 9.86547 16.6666 9.99935 16.6666C10.1332 16.6666 10.23 16.6472 10.2664 16.6343L10.2737 16.6318L10.2737 16.6318C11.3744 16.2561 13.2267 15.2516 14.7939 13.6459C16.352 12.0494 17.5827 9.90877 17.5827 7.24158C17.5827 5.07729 15.84 3.33325 13.6994 3.33325C12.4388 3.33325 11.308 3.9457 10.6015 4.89708C10.46 5.0876 10.2367 5.19992 9.99935 5.19992C9.76203 5.19992 9.53872 5.0876 9.39723 4.89708C8.69023 3.94508 7.56749 3.33325 6.29935 3.33325ZM0.916016 7.24158C0.916016 4.25588 3.3233 1.83325 6.29935 1.83325C7.73683 1.83325 9.03862 2.40014 9.9997 3.32061C10.9629 2.39983 12.2691 1.83325 13.6994 1.83325C16.6754 1.83325 19.0827 4.25588 19.0827 7.24158C19.0827 10.4077 17.6134 12.9046 15.8673 14.6936C14.1317 16.4718 12.0776 17.6003 10.7615 18.0503C10.5156 18.1363 10.2391 18.1666 9.99935 18.1666C9.75957 18.1666 9.48305 18.1363 9.23717 18.0503C7.92106 17.6003 5.86695 16.4718 4.13137 14.6936C2.38534 12.9046 0.916016 10.4077 0.916016 7.24158Z" fill="#0F172A"/>
</svg>
