<svg width="16" height="16" viewBox="0 0 16 16" fill="none" xmlns="http://www.w3.org/2000/svg">
<path fill-rule="evenodd" clip-rule="evenodd" d="M6.29639 0.908428C6.53103 1.14242 6.53155 1.52232 6.29756 1.75695L3.88422 4.17696C3.65023 4.41159 3.27033 4.41212 3.0357 4.17813C2.80106 3.94413 2.80054 3.56424 3.03453 3.3296L5.44786 0.909598C5.68185 0.67496 6.06175 0.674436 6.29639 0.908428Z" fill="white"/>
<path fill-rule="evenodd" clip-rule="evenodd" d="M9.70269 0.908428C9.93733 0.674436 10.3172 0.67496 10.5512 0.909598L12.9646 3.3296C13.1985 3.56424 13.198 3.94413 12.9634 4.17813C12.7287 4.41212 12.3488 4.41159 12.1149 4.17696L9.70152 1.75695C9.46753 1.52232 9.46805 1.14242 9.70269 0.908428Z" fill="white"/>
<path fill-rule="evenodd" clip-rule="evenodd" d="M2.09979 4.60248C2.06826 4.62361 1.9334 4.71496 1.9334 5.23314C1.9334 5.55335 1.97141 5.73315 2.00859 5.82882C2.0377 5.90374 2.06047 5.91497 2.06492 5.91716C2.06517 5.91729 2.06537 5.91738 2.0655 5.91746C2.08547 5.92897 2.14038 5.95104 2.28018 5.96131C2.38722 5.96918 2.49641 5.96836 2.63698 5.96731C2.69067 5.96691 2.74893 5.96647 2.8134 5.96647H13.1867C13.2512 5.96647 13.3095 5.96691 13.3631 5.96731C13.5037 5.96836 13.6129 5.96918 13.7199 5.96131C13.8598 5.95104 13.9147 5.92897 13.9346 5.91746C13.9348 5.91738 13.935 5.91729 13.9352 5.91716C13.9397 5.91497 13.9624 5.90374 13.9915 5.82882C14.0287 5.73316 14.0667 5.55335 14.0667 5.23314C14.0667 4.71496 13.9319 4.62361 13.9003 4.60248C13.8042 4.53813 13.6152 4.4998 13.1867 4.4998H2.8134C2.38497 4.4998 2.19588 4.53813 2.09979 4.60248ZM1.432 3.60546C1.87092 3.31148 2.42182 3.2998 2.8134 3.2998H13.1867C13.5783 3.2998 14.1292 3.31148 14.5681 3.60546C15.0716 3.94267 15.2667 4.51799 15.2667 5.23314C15.2667 6.00446 15.0932 6.63477 14.5338 6.95715C14.2863 7.09981 14.0225 7.14232 13.8079 7.15809C13.6479 7.16985 13.4689 7.16841 13.3142 7.16718C13.2693 7.16682 13.2265 7.16647 13.1867 7.16647H2.8134C2.77366 7.16647 2.73083 7.16682 2.68595 7.16718C2.53125 7.16841 2.35227 7.16985 2.19224 7.15809C1.97767 7.14232 1.71383 7.09981 1.4663 6.95715C0.906921 6.63477 0.733398 6.00446 0.733398 5.23314C0.733398 4.51799 0.928539 3.94267 1.432 3.60546Z" fill="white"/>
<path fill-rule="evenodd" clip-rule="evenodd" d="M6.50527 8.73315C6.83664 8.73315 7.10527 9.00178 7.10527 9.33315V11.6998C7.10527 12.0312 6.83664 12.2998 6.50527 12.2998C6.1739 12.2998 5.90527 12.0312 5.90527 11.6998V9.33315C5.90527 9.00178 6.1739 8.73315 6.50527 8.73315Z" fill="white"/>
<path fill-rule="evenodd" clip-rule="evenodd" d="M9.57266 8.73315C9.90403 8.73315 10.1727 9.00178 10.1727 9.33315V11.6998C10.1727 12.0312 9.90403 12.2998 9.57266 12.2998C9.24129 12.2998 8.97266 12.0312 8.97266 11.6998V9.33315C8.97266 9.00178 9.24129 8.73315 9.57266 8.73315Z" fill="white"/>
<path fill-rule="evenodd" clip-rule="evenodd" d="M13.7798 6.07726C14.1053 6.13967 14.3185 6.45409 14.2561 6.77953L13.1361 12.6194C13.1361 12.6194 13.1361 12.6193 13.1361 12.6194C13.0186 13.2329 12.8611 13.944 12.3584 14.4708C11.83 15.0244 11.0387 15.2665 9.92682 15.2665H5.90682C4.85603 15.2665 4.07194 15.0037 3.52822 14.4531C3.00142 13.9196 2.79401 13.2063 2.68149 12.5242L1.74132 6.76316C1.68795 6.43611 1.90981 6.12772 2.23685 6.07435C2.5639 6.02098 2.87228 6.24283 2.92566 6.56988L3.86549 12.3289C3.86552 12.329 3.86546 12.3287 3.86549 12.3289C3.9663 12.9397 4.1223 13.3468 4.38209 13.6099C4.62504 13.856 5.05095 14.0665 5.90682 14.0665H9.92682C10.8883 14.0665 11.287 13.8553 11.4903 13.6423C11.7192 13.4024 11.835 13.0334 11.9575 12.3937L13.0776 6.55351C13.14 6.22807 13.4544 6.01484 13.7798 6.07726Z" fill="white"/>
</svg>
