<svg width="16" height="16" viewBox="0 0 16 16" fill="none" xmlns="http://www.w3.org/2000/svg">
<path fill-rule="evenodd" clip-rule="evenodd" d="M0.733398 8.00006C0.733398 4.00203 4.00203 0.733398 8.00006 0.733398C11.9981 0.733398 15.2667 4.00203 15.2667 8.00006C15.2667 11.9981 11.9981 15.2667 8.00006 15.2667C4.00203 15.2667 0.733398 11.9981 0.733398 8.00006ZM8.00006 1.9334C4.66477 1.9334 1.9334 4.66477 1.9334 8.00006C1.9334 11.3354 4.66477 14.0667 8.00006 14.0667C11.3354 14.0667 14.0667 11.3354 14.0667 8.00006C14.0667 4.66477 11.3354 1.9334 8.00006 1.9334Z" fill="#2563EB"/>
<path fill-rule="evenodd" clip-rule="evenodd" d="M8.00039 4.7334C8.33176 4.7334 8.60039 5.00203 8.60039 5.3334V8.66673C8.60039 8.9981 8.33176 9.26673 8.00039 9.26673C7.66902 9.26673 7.40039 8.9981 7.40039 8.66673V5.3334C7.40039 5.00203 7.66902 4.7334 8.00039 4.7334Z" fill="#2563EB"/>
<path fill-rule="evenodd" clip-rule="evenodd" d="M7.39648 10.6664C7.39648 10.335 7.66511 10.0664 7.99648 10.0664H8.00247C8.33384 10.0664 8.60247 10.335 8.60247 10.6664C8.60247 10.9978 8.33384 11.2664 8.00247 11.2664H7.99648C7.66511 11.2664 7.39648 10.9978 7.39648 10.6664Z" fill="#2563EB"/>
</svg>
