<svg width="20" height="20" viewBox="0 0 20 20" fill="none" xmlns="http://www.w3.org/2000/svg">
<path fill-rule="evenodd" clip-rule="evenodd" d="M13.42 2.3419C13.2817 2.26924 12.9252 2.22496 12.3166 2.66498L9.75167 4.51369C9.47307 4.71825 9.12636 4.83273 8.80736 4.8815C8.48601 4.93064 8.12416 4.92364 7.80158 4.82041L7.79683 4.81889L5.33891 4.01068C4.65592 3.78673 4.33112 3.92965 4.21473 4.04467C4.09755 4.16048 3.95048 4.48528 4.16379 5.1726C4.16373 5.17242 4.16384 5.17277 4.16379 5.1726L5.00485 7.86247C5.00477 7.86223 5.00492 7.8627 5.00485 7.86247C5.11612 8.21648 5.10655 8.6096 5.03492 8.95053C4.96315 9.29208 4.81427 9.65369 4.57412 9.93279L2.92491 11.8486C2.9248 11.8487 2.92502 11.8484 2.92491 11.8486C2.31124 12.5647 2.35397 12.9496 2.40619 13.0559C2.45851 13.1625 2.73672 13.4314 3.67695 13.3843L6.46025 13.2426C6.84699 13.2233 7.24122 13.3371 7.56807 13.5072C7.8948 13.6773 8.21707 13.936 8.42406 14.2722C8.42397 14.272 8.42414 14.2723 8.42406 14.2722L9.89044 16.6467C10.3867 17.4502 10.7655 17.5245 10.8812 17.5071C10.9979 17.4895 11.3389 17.3053 11.5792 16.3912L12.2197 13.946C12.2199 13.9452 12.2201 13.9445 12.2203 13.9437C12.3126 13.583 12.5291 13.2546 12.7699 13.0032C13.0115 12.7509 13.3291 12.5226 13.6794 12.4123L16.3705 11.5708C16.3702 11.5709 16.3708 11.5707 16.3705 11.5708C17.0581 11.3535 17.2427 11.0467 17.2712 10.884C17.2994 10.7229 17.2322 10.3746 16.6572 9.94067L16.6561 9.93986L14.5922 8.37529C14.3147 8.1692 14.1025 7.87046 13.9618 7.57981C13.8203 7.28748 13.719 6.9374 13.7255 6.59693M13.7255 6.59693L13.7838 3.43861C13.7985 2.6861 13.5591 2.41503 13.42 2.3419M15.0336 3.46235C15.0522 2.50653 14.7542 1.63111 14.0016 1.23548C13.2483 0.839435 12.3591 1.09191 11.5846 1.65173C11.5845 1.65181 11.5847 1.65165 11.5846 1.65173L9.01827 3.50145L9.01256 3.50561C8.94171 3.55791 8.80236 3.61774 8.61842 3.64587C8.43679 3.67364 8.27868 3.66017 8.18437 3.63046L5.72894 2.82309C4.83721 2.53056 3.93214 2.5665 3.33606 3.15561C2.74077 3.74393 2.69206 4.64816 2.97018 5.54382L3.81217 8.23666C3.84233 8.33246 3.85245 8.49924 3.81163 8.6935C3.7709 8.88736 3.69478 9.03825 3.6266 9.11748L1.97671 11.0341L1.97584 11.0351C1.28986 11.8354 0.880126 12.7841 1.28416 13.6069C1.68808 14.4295 2.68897 14.6855 3.74006 14.6327L6.52323 14.491C6.6365 14.4854 6.80949 14.5216 6.99097 14.616C7.17244 14.7105 7.30004 14.8307 7.35973 14.9277L8.82692 17.3035C9.38064 18.2 10.1602 18.8799 11.0675 18.7432C11.9737 18.6066 12.5202 17.7283 12.7882 16.7091L13.43 14.2585L13.4311 14.2543C13.4557 14.1576 13.5347 14.0118 13.6726 13.8679C13.81 13.7244 13.9549 13.6361 14.0546 13.6047C14.0545 13.6047 14.0546 13.6047 14.0546 13.6047L16.7452 12.7633L16.7469 12.7628C17.642 12.4801 18.358 11.9244 18.5025 11.0996C18.6471 10.2734 18.1604 9.50932 17.4107 8.94332C17.4106 8.94319 17.4109 8.94346 17.4107 8.94332L15.3446 7.37708L15.3382 7.37229C15.2676 7.32014 15.1684 7.20355 15.0869 7.03506C15.0055 6.8671 14.9735 6.71319 14.9752 6.62049L15.0336 3.46235Z" fill="white"/>
<path fill-rule="evenodd" clip-rule="evenodd" d="M15.2917 15.3666C15.5358 15.1226 15.9315 15.1226 16.1756 15.3667L18.7006 17.8917C18.9446 18.1357 18.9446 18.5315 18.7006 18.7755C18.4565 19.0196 18.0607 19.0196 17.8167 18.7755L15.2917 16.2505C15.0476 16.0065 15.0476 15.6107 15.2917 15.3666Z" fill="white"/>
</svg>
