<svg width="14" height="20" viewBox="0 0 14 20" fill="none" xmlns="http://www.w3.org/2000/svg">
<path fill-rule="evenodd" clip-rule="evenodd" d="M9.90165 1.80976C10.0374 2.13839 10.0914 2.52506 10.0914 2.93342V8.18342H11.9164C12.593 8.18342 13.3746 8.3901 13.6937 9.0966C14.0129 9.80331 13.6504 10.525 13.2038 11.0297C13.2035 11.03 13.2032 11.0304 13.2029 11.0307L6.89607 18.1956C6.6263 18.5019 6.33024 18.7564 6.01159 18.9136C5.68976 19.0723 5.28648 19.1566 4.88095 19.0043C4.47501 18.8519 4.22685 18.5227 4.08955 18.1904C3.95376 17.8618 3.89977 17.4751 3.89977 17.0667V11.8168H2.07477C1.40293 11.8168 0.623657 11.6125 0.304157 10.9076C-0.0145855 10.2044 0.342607 9.48296 0.783354 8.97515L0.786784 8.97119L7.09513 1.80454C7.36491 1.49831 7.66096 1.24372 7.97961 1.08656C8.30144 0.92783 8.70472 0.843605 9.11025 0.995852C9.51619 1.14825 9.76436 1.4775 9.90165 1.80976ZM8.22087 2.79586C8.2208 2.79593 8.22094 2.79578 8.22087 2.79586L1.91457 9.96022C1.79596 10.0972 1.73551 10.2025 1.70679 10.271C1.77678 10.2937 1.89501 10.3168 2.07477 10.3168H4.64977C5.06398 10.3168 5.39977 10.6525 5.39977 11.0668V17.0667C5.39977 17.2674 5.41907 17.4122 5.44261 17.5109C5.52597 17.4522 5.63683 17.3558 5.77013 17.2045L12.0785 10.0379L12.08 10.0361C12.199 9.90175 12.2601 9.79792 12.2893 9.73031C12.2186 9.70701 12.0988 9.68342 11.9164 9.68342H9.34143C8.92722 9.68342 8.59143 9.34763 8.59143 8.93342V2.93342C8.59143 2.7328 8.57213 2.58798 8.54859 2.4893C8.46523 2.54798 8.35418 2.64457 8.22087 2.79586ZM5.49588 17.658C5.49588 17.658 5.49562 17.6577 5.49513 17.6569L5.49588 17.658Z" fill="#0F172A"/>
</svg>
