<svg width="20" height="20" viewBox="0 0 20 20" fill="none" xmlns="http://www.w3.org/2000/svg">
<path fill-rule="evenodd" clip-rule="evenodd" d="M14.6167 3.4748C13.8435 3.4748 13.2167 4.1016 13.2167 4.8748C13.2167 5.64801 13.8435 6.2748 14.6167 6.2748C15.3899 6.2748 16.0167 5.648 16.0167 4.8748C16.0167 4.10161 15.3899 3.4748 14.6167 3.4748ZM11.9167 4.8748C11.9167 3.38364 13.1256 2.1748 14.6167 2.1748C16.1079 2.1748 17.3167 3.38363 17.3167 4.8748C17.3167 6.36598 16.1079 7.5748 14.6167 7.5748C13.1256 7.5748 11.9167 6.36597 11.9167 4.8748Z" fill="#94A3B8"/>
<path fill-rule="evenodd" clip-rule="evenodd" d="M5.38336 3.4748C4.61015 3.4748 3.98335 4.10161 3.98335 4.8748C3.98335 5.648 4.61015 6.2748 5.38336 6.2748C6.15655 6.2748 6.78335 5.64801 6.78335 4.8748C6.78335 4.1016 6.15655 3.4748 5.38336 3.4748ZM2.68335 4.8748C2.68335 3.38363 3.89219 2.1748 5.38336 2.1748C6.87453 2.1748 8.08335 3.38364 8.08335 4.8748C8.08335 6.36597 6.87453 7.5748 5.38336 7.5748C3.89219 7.5748 2.68335 6.36598 2.68335 4.8748Z" fill="#94A3B8"/>
<path fill-rule="evenodd" clip-rule="evenodd" d="M14.6167 13.7248C13.8435 13.7248 13.2167 14.3516 13.2167 15.1248C13.2167 15.898 13.8435 16.5248 14.6167 16.5248C15.3899 16.5248 16.0167 15.898 16.0167 15.1248C16.0167 14.3516 15.3899 13.7248 14.6167 13.7248ZM11.9167 15.1248C11.9167 13.6336 13.1256 12.4248 14.6167 12.4248C16.1079 12.4248 17.3167 13.6336 17.3167 15.1248C17.3167 16.616 16.1079 17.8248 14.6167 17.8248C13.1256 17.8248 11.9167 16.616 11.9167 15.1248Z" fill="#94A3B8"/>
<path fill-rule="evenodd" clip-rule="evenodd" d="M5.38336 13.7248C4.61015 13.7248 3.98335 14.3516 3.98335 15.1248C3.98335 15.898 4.61015 16.5248 5.38336 16.5248C6.15655 16.5248 6.78335 15.898 6.78335 15.1248C6.78335 14.3516 6.15655 13.7248 5.38336 13.7248ZM2.68335 15.1248C2.68335 13.6336 3.89219 12.4248 5.38336 12.4248C6.87453 12.4248 8.08335 13.6336 8.08335 15.1248C8.08335 16.616 6.87453 17.8248 5.38336 17.8248C3.89219 17.8248 2.68335 16.616 2.68335 15.1248Z" fill="#94A3B8"/>
</svg>
