<svg width="20" height="20" viewBox="0 0 20 20" fill="none" xmlns="http://www.w3.org/2000/svg">
<path fill-rule="evenodd" clip-rule="evenodd" d="M3.24527 2.07966C4.03371 1.23688 5.27334 1.04102 6.84959 1.04102H13.1496C14.7258 1.04102 15.9655 1.23688 16.7539 2.07966C17.5285 2.90761 17.7079 4.19639 17.7079 5.86602V9.41601C17.7079 9.76118 17.4281 10.041 17.0829 10.041C16.7377 10.041 16.4579 9.76118 16.4579 9.41601V5.86602C16.4579 4.17732 16.2457 3.3661 15.8411 2.93363C15.4504 2.51598 14.7233 2.29102 13.1496 2.29102H6.84959C5.27584 2.29102 4.54881 2.51598 4.15808 2.93363C3.75349 3.3661 3.54126 4.17732 3.54126 5.86602V15.2493C3.54126 15.7532 3.61133 16.1147 3.70814 16.3521C3.80411 16.5875 3.90639 16.658 3.95621 16.6795C4.00146 16.699 4.10748 16.7232 4.31736 16.6326C4.53336 16.5393 4.81762 16.3391 5.15063 15.9817L5.16532 15.9664L5.16789 15.9638C6.11566 14.9658 7.60942 15.0475 8.43355 16.1502L9.27504 17.2749C9.48182 17.5513 9.42539 17.943 9.149 18.1498C8.87261 18.3566 8.48093 18.3001 8.27415 18.0238L7.43247 16.8987C7.07514 16.4206 6.49031 16.3832 6.07107 16.828L6.05904 16.8408L6.05783 16.8416C5.65561 17.2719 5.2372 17.597 4.81283 17.7802C4.37974 17.9672 3.90502 18.0185 3.46174 17.8275C3.02302 17.6386 2.72894 17.2612 2.55069 16.8242C2.37328 16.3891 2.29126 15.8539 2.29126 15.2493V5.86602C2.29126 4.19639 2.47069 2.90761 3.24527 2.07966Z" fill="#0F172A"/>
<path fill-rule="evenodd" clip-rule="evenodd" d="M15.1667 13.125C14.0391 13.125 13.125 14.0391 13.125 15.1667C13.125 16.2943 14.0391 17.2083 15.1667 17.2083C16.2943 17.2083 17.2083 16.2943 17.2083 15.1667C17.2083 14.0391 16.2943 13.125 15.1667 13.125ZM11.875 15.1667C11.875 13.3487 13.3487 11.875 15.1667 11.875C16.9846 11.875 18.4583 13.3487 18.4583 15.1667C18.4583 16.9846 16.9846 18.4583 15.1667 18.4583C13.3487 18.4583 11.875 16.9846 11.875 15.1667Z" fill="#0F172A"/>
<path fill-rule="evenodd" clip-rule="evenodd" d="M17.0581 17.0581C17.3021 16.814 17.6979 16.814 17.9419 17.0581L18.7753 17.8914C19.0194 18.1355 19.0194 18.5312 18.7753 18.7753C18.5312 19.0194 18.1355 19.0194 17.8914 18.7753L17.0581 17.9419C16.814 17.6979 16.814 17.3021 17.0581 17.0581Z" fill="#0F172A"/>
<path fill-rule="evenodd" clip-rule="evenodd" d="M6.04126 5.83203C6.04126 5.48685 6.32108 5.20703 6.66626 5.20703H13.3329C13.6781 5.20703 13.9579 5.48685 13.9579 5.83203C13.9579 6.17721 13.6781 6.45703 13.3329 6.45703H6.66626C6.32108 6.45703 6.04126 6.17721 6.04126 5.83203Z" fill="#0F172A"/>
<path fill-rule="evenodd" clip-rule="evenodd" d="M6.875 9.16602C6.875 8.82084 7.15482 8.54102 7.5 8.54102H12.5C12.8452 8.54102 13.125 8.82084 13.125 9.16602C13.125 9.51119 12.8452 9.79102 12.5 9.79102H7.5C7.15482 9.79102 6.875 9.51119 6.875 9.16602Z" fill="#0F172A"/>
</svg>
