<svg width="16" height="16" viewBox="0 0 16 16" fill="none" xmlns="http://www.w3.org/2000/svg">
<g clip-path="url(#clip0_358_20780)">
<path d="M7.99992 14.6673C11.6818 14.6673 14.6666 11.6825 14.6666 8.00065C14.6666 4.31875 11.6818 1.33398 7.99992 1.33398C4.31802 1.33398 1.33325 4.31875 1.33325 8.00065C1.33325 11.6825 4.31802 14.6673 7.99992 14.6673Z" stroke="white"/>
<path d="M6 9.33398H8" stroke="white" stroke-linecap="round"/>
<path d="M6.66667 7.99935V5.46602C6.66667 5.34215 6.66667 5.28022 6.67487 5.2284C6.72007 4.94313 6.9438 4.7194 7.22907 4.67422C7.28087 4.66602 7.3428 4.66602 7.46667 4.66602H9C9.92047 4.66602 10.6667 5.41221 10.6667 6.33268C10.6667 7.25315 9.92047 7.99935 9 7.99935H6.66667ZM6.66667 7.99935V11.3327M6.66667 7.99935H6" stroke="white" stroke-linecap="round"/>
</g>
<defs>
<clipPath id="clip0_358_20780">
<rect width="16" height="16" fill="white"/>
</clipPath>
</defs>
</svg>
