<svg width="20" height="20" viewBox="0 0 20 20" fill="none" xmlns="http://www.w3.org/2000/svg">
<path fill-rule="evenodd" clip-rule="evenodd" d="M3.3582 3.33354C2.68342 4.00833 2.29126 5.07128 2.29126 6.6416V10.8083C2.29126 12.8377 2.70265 13.8534 3.32782 14.4004C3.97365 14.9655 5.01064 15.1833 6.66626 15.1833H7.08293C7.32004 15.1833 7.548 15.2577 7.72702 15.3472C7.90714 15.4372 8.10101 15.5742 8.24414 15.7594L8.24963 15.7666L8.24958 15.7666L9.49958 17.4333C9.67388 17.6657 9.86101 17.7333 9.99959 17.7333C10.1382 17.7333 10.3253 17.6657 10.4996 17.4333C10.7067 17.1571 11.0985 17.1012 11.3746 17.3083C11.6507 17.5154 11.7067 17.9071 11.4996 18.1833C11.1239 18.6842 10.586 18.9833 9.99959 18.9833C9.41316 18.9833 8.87528 18.6842 8.49958 18.1833L7.25546 16.5244C7.25372 16.5226 7.24748 16.5163 7.23513 16.5067C7.2177 16.4933 7.19462 16.4785 7.16799 16.4652C7.14131 16.4519 7.11665 16.4427 7.09742 16.4375C7.08704 16.4347 7.08071 16.4336 7.07839 16.4333H6.66626C4.98854 16.4333 3.52554 16.2344 2.50469 15.3411C1.4632 14.4298 1.04126 12.9455 1.04126 10.8083V6.6416C1.04126 4.87859 1.48243 3.44154 2.47432 2.44966C3.4662 1.45778 4.90325 1.0166 6.66626 1.0166H13.3329C15.0959 1.0166 16.533 1.45778 17.5249 2.44966C18.5167 3.44154 18.9579 4.87859 18.9579 6.6416V10.8083C18.9579 11.1534 18.6781 11.4333 18.3329 11.4333C17.9877 11.4333 17.7079 11.1534 17.7079 10.8083V6.6416C17.7079 5.07128 17.3158 4.00833 16.641 3.33354C15.9662 2.65876 14.9033 2.2666 13.3329 2.2666H6.66626C5.09593 2.2666 4.03298 2.65876 3.3582 3.33354Z" fill="#0F172A"/>
<path fill-rule="evenodd" clip-rule="evenodd" d="M15.1667 13.125C14.0391 13.125 13.125 14.0391 13.125 15.1667C13.125 16.2942 14.0391 17.2083 15.1667 17.2083C16.2943 17.2083 17.2083 16.2943 17.2083 15.1667C17.2083 14.0391 16.2943 13.125 15.1667 13.125ZM11.875 15.1667C11.875 13.3487 13.3487 11.875 15.1667 11.875C16.9846 11.875 18.4583 13.3487 18.4583 15.1667C18.4583 16.9846 16.9846 18.4583 15.1667 18.4583C13.3487 18.4583 11.875 16.9846 11.875 15.1667Z" fill="#0F172A"/>
<path fill-rule="evenodd" clip-rule="evenodd" d="M17.0581 17.0581C17.3021 16.814 17.6979 16.814 17.9419 17.0581L18.7753 17.8914C19.0194 18.1355 19.0194 18.5312 18.7753 18.7753C18.5312 19.0194 18.1355 19.0194 17.8914 18.7753L17.0581 17.9419C16.814 17.6979 16.814 17.3021 17.0581 17.0581Z" fill="#0F172A"/>
<path fill-rule="evenodd" clip-rule="evenodd" d="M12.7051 9.16699C12.7051 8.82181 12.9849 8.54199 13.3301 8.54199H13.3376C13.6827 8.54199 13.9626 8.82181 13.9626 9.16699C13.9626 9.51217 13.6827 9.79199 13.3376 9.79199H13.3301C12.9849 9.79199 12.7051 9.51217 12.7051 9.16699Z" fill="#0F172A"/>
<path fill-rule="evenodd" clip-rule="evenodd" d="M9.37134 9.16699C9.37134 8.82181 9.65116 8.54199 9.99634 8.54199H10.0038C10.349 8.54199 10.6288 8.82181 10.6288 9.16699C10.6288 9.51217 10.349 9.79199 10.0038 9.79199H9.99634C9.65116 9.79199 9.37134 9.51217 9.37134 9.16699Z" fill="#0F172A"/>
<path fill-rule="evenodd" clip-rule="evenodd" d="M6.03638 9.16699C6.03638 8.82181 6.3162 8.54199 6.66138 8.54199H6.66886C7.01404 8.54199 7.29386 8.82181 7.29386 9.16699C7.29386 9.51217 7.01404 9.79199 6.66886 9.79199H6.66138C6.3162 9.79199 6.03638 9.51217 6.03638 9.16699Z" fill="#0F172A"/>
</svg>
