<svg width="20" height="20" viewBox="0 0 20 20" fill="none" xmlns="http://www.w3.org/2000/svg">
<path d="M10 18.9659C9.09171 18.9659 8.19171 18.6992 7.48337 18.1742L3.90004 15.4992C2.95004 14.7909 2.20837 13.3076 2.20837 12.1326V5.93255C2.20837 4.64922 3.15004 3.28255 4.35837 2.83255L8.51671 1.27422C9.34171 0.965885 10.6417 0.965885 11.4667 1.27422L15.625 2.83255C16.8334 3.28255 17.775 4.64922 17.775 5.93255V12.1242C17.775 13.3076 17.0334 14.7826 16.0834 15.4909L12.5 18.1659C11.8084 18.6992 10.9084 18.9659 10 18.9659ZM8.95837 2.44922L4.80004 4.00755C4.09171 4.27422 3.46671 5.17422 3.46671 5.94089V12.1326C3.46671 12.9242 4.02504 14.0326 4.65004 14.4992L8.23337 17.1742C9.19171 17.8909 10.8084 17.8909 11.775 17.1742L15.3584 14.4992C15.9917 14.0242 16.5417 12.9242 16.5417 12.1326V5.93255C16.5417 5.17422 15.9167 4.27422 15.2084 3.99922L11.05 2.44089C10.4834 2.24089 9.51671 2.24089 8.95837 2.44922Z" fill="white"/>
<path d="M8.88328 11.8586C8.72495 11.8586 8.56662 11.8003 8.44162 11.6753L7.09995 10.3336C6.85828 10.0919 6.85828 9.69193 7.09995 9.45026C7.34162 9.20859 7.74162 9.20859 7.98328 9.45026L8.88328 10.3503L12.025 7.20859C12.2666 6.96693 12.6666 6.96693 12.9083 7.20859C13.15 7.45026 13.15 7.85026 12.9083 8.09193L9.32495 11.6753C9.19995 11.8003 9.04162 11.8586 8.88328 11.8586Z" fill="white"/>
</svg>
