<svg width="14" height="14" viewBox="0 0 14 14" fill="none" xmlns="http://www.w3.org/2000/svg">
<mask id="path-1-inside-1_4011_14722" fill="white">
<path d="M6.99577 0.333252C5.67723 0.333252 4.3883 0.724245 3.29197 1.45679C2.19564 2.18933 1.34116 3.23052 0.836574 4.4487C0.33199 5.66687 0.199968 7.00731 0.457203 8.30052C0.714438 9.59373 1.34938 10.7816 2.28173 11.714C3.21408 12.6463 4.40196 13.2813 5.69517 13.5385C6.98838 13.7957 8.32882 13.6637 9.547 13.1591C10.7652 12.6545 11.8064 11.8 12.5389 10.7037C13.2714 9.60739 13.6624 8.31846 13.6624 6.99992C13.6625 6.12442 13.4901 5.25748 13.1551 4.44861C12.8201 3.63974 12.3291 2.90478 11.71 2.28571C11.0909 1.66664 10.356 1.17558 9.54708 0.840574C8.73821 0.505568 7.87127 0.333179 6.99577 0.333252ZM9.11545 10.4349C9.09049 10.4971 9.05252 10.5533 9.00409 10.5996C8.95566 10.646 8.89787 10.6814 8.83461 10.7036C8.77136 10.7258 8.70408 10.7342 8.63731 10.7283C8.57053 10.7224 8.5058 10.7022 8.44744 10.6692L6.63766 9.26298L5.47612 10.3346C5.44917 10.3545 5.41764 10.3673 5.38444 10.3719C5.35123 10.3764 5.31742 10.3725 5.28612 10.3605L5.50878 8.36824L5.51591 8.37389L5.52046 8.33456C5.52046 8.33456 8.77713 5.36955 8.9098 5.24322C9.04411 5.11722 8.9998 5.08989 8.9998 5.08989C9.00744 4.9362 8.75879 5.08989 8.75879 5.08989L4.44377 7.86592L2.64678 7.25392C2.64678 7.25392 2.37078 7.15492 2.34478 6.93725C2.31744 6.72125 2.65577 6.60392 2.65577 6.60392L9.80044 3.76558C9.80044 3.76558 10.3878 3.5039 10.3878 3.93725L9.11545 10.4349Z"/>
</mask>
<path d="M6.99577 0.333252C5.67723 0.333252 4.3883 0.724245 3.29197 1.45679C2.19564 2.18933 1.34116 3.23052 0.836574 4.4487C0.33199 5.66687 0.199968 7.00731 0.457203 8.30052C0.714438 9.59373 1.34938 10.7816 2.28173 11.714C3.21408 12.6463 4.40196 13.2813 5.69517 13.5385C6.98838 13.7957 8.32882 13.6637 9.547 13.1591C10.7652 12.6545 11.8064 11.8 12.5389 10.7037C13.2714 9.60739 13.6624 8.31846 13.6624 6.99992C13.6625 6.12442 13.4901 5.25748 13.1551 4.44861C12.8201 3.63974 12.3291 2.90478 11.71 2.28571C11.0909 1.66664 10.356 1.17558 9.54708 0.840574C8.73821 0.505568 7.87127 0.333179 6.99577 0.333252ZM9.11545 10.4349C9.09049 10.4971 9.05252 10.5533 9.00409 10.5996C8.95566 10.646 8.89787 10.6814 8.83461 10.7036C8.77136 10.7258 8.70408 10.7342 8.63731 10.7283C8.57053 10.7224 8.5058 10.7022 8.44744 10.6692L6.63766 9.26298L5.47612 10.3346C5.44917 10.3545 5.41764 10.3673 5.38444 10.3719C5.35123 10.3764 5.31742 10.3725 5.28612 10.3605L5.50878 8.36824L5.51591 8.37389L5.52046 8.33456C5.52046 8.33456 8.77713 5.36955 8.9098 5.24322C9.04411 5.11722 8.9998 5.08989 8.9998 5.08989C9.00744 4.9362 8.75879 5.08989 8.75879 5.08989L4.44377 7.86592L2.64678 7.25392C2.64678 7.25392 2.37078 7.15492 2.34478 6.93725C2.31744 6.72125 2.65577 6.60392 2.65577 6.60392L9.80044 3.76558C9.80044 3.76558 10.3878 3.5039 10.3878 3.93725L9.11545 10.4349Z" fill="#94A3B8"/>
<path d="M13.6624 6.99992L12.6624 6.99984V6.99992H13.6624ZM9.11545 10.4349L10.0436 10.8071L10.0787 10.7196L10.0968 10.6271L9.11545 10.4349ZM8.44744 10.6692L7.83387 11.4589L7.89161 11.5037L7.95525 11.5397L8.44744 10.6692ZM6.63766 9.26298L7.25124 8.47334L6.58226 7.95353L5.95959 8.52799L6.63766 9.26298ZM5.47612 10.3346L6.07037 11.1389L6.11417 11.1065L6.1542 11.0696L5.47612 10.3346ZM5.28612 10.3605L4.29231 10.2495L4.20634 11.0187L4.92939 11.2948L5.28612 10.3605ZM5.50878 8.36824L6.13024 7.58478L4.71554 6.46262L4.51497 8.25717L5.50878 8.36824ZM5.51591 8.37389L4.89446 9.15734L6.30261 10.2743L6.50928 8.48887L5.51591 8.37389ZM5.52046 8.33456L4.84724 7.59512L4.57018 7.84737L4.5271 8.21958L5.52046 8.33456ZM8.9098 5.24322L8.2256 4.51389L8.22021 4.51903L8.9098 5.24322ZM8.9998 5.08989L8.00103 5.0402L7.97166 5.63065L8.47482 5.94101L8.9998 5.08989ZM8.75879 5.08989L8.23304 4.23925L8.22535 4.24401L8.21774 4.2489L8.75879 5.08989ZM4.44377 7.86592L4.12139 8.81253L4.57861 8.96824L4.98482 8.70691L4.44377 7.86592ZM2.64678 7.25392L2.30915 8.1952L2.31675 8.19792L2.32439 8.20053L2.64678 7.25392ZM2.34478 6.93725L3.33774 6.81864L3.33687 6.81171L2.34478 6.93725ZM2.65577 6.60392L2.98343 7.54871L3.00437 7.54145L3.02497 7.53327L2.65577 6.60392ZM9.80044 3.76558L10.1696 4.69493L10.1887 4.68736L10.2074 4.67902L9.80044 3.76558ZM10.3878 3.93725L11.3691 4.12942L11.3878 4.03424V3.93725H10.3878ZM6.99577 -0.666748C5.47945 -0.666748 3.99718 -0.217106 2.7364 0.625318L3.84754 2.28826C4.77942 1.6656 5.87501 1.33325 6.99577 1.33325V-0.666748ZM2.7364 0.625318C1.47562 1.46774 0.492967 2.66511 -0.0873052 4.06601L1.76045 4.83138C2.18935 3.79593 2.91566 2.91092 3.84754 2.28826L2.7364 0.625318ZM-0.0873052 4.06601C-0.667577 5.46691 -0.819403 7.00842 -0.523583 8.49561L1.43799 8.10543C1.21934 7.0062 1.33156 5.86683 1.76045 4.83138L-0.0873052 4.06601ZM-0.523583 8.49561C-0.227763 9.9828 0.502417 11.3489 1.57462 12.4211L2.98883 11.0069C2.19634 10.2144 1.65664 9.20466 1.43799 8.10543L-0.523583 8.49561ZM1.57462 12.4211C2.64682 13.4933 4.01289 14.2235 5.50008 14.5193L5.89026 12.5577C4.79103 12.3391 3.78133 11.7994 2.98883 11.0069L1.57462 12.4211ZM5.50008 14.5193C6.98727 14.8151 8.52878 14.6633 9.92968 14.083L9.16431 12.2352C8.12886 12.6641 6.98949 12.7764 5.89026 12.5577L5.50008 14.5193ZM9.92968 14.083C11.3306 13.5027 12.5279 12.5201 13.3704 11.2593L11.7074 10.1481C11.0848 11.08 10.1998 11.8063 9.16431 12.2352L9.92968 14.083ZM13.3704 11.2593C14.2128 9.99851 14.6624 8.51624 14.6624 6.99992L12.6624 6.99992C12.6624 8.12068 12.3301 9.21627 11.7074 10.1481L13.3704 11.2593ZM14.6624 7C14.6625 5.99317 14.4643 4.99617 14.079 4.06596L12.2312 4.83125C12.516 5.51878 12.6625 6.25567 12.6624 6.99984L14.6624 7ZM14.079 4.06596C13.6938 3.13575 13.129 2.29054 12.4171 1.5786L11.0029 2.99282C11.5291 3.51902 11.9465 4.14372 12.2312 4.83125L14.079 4.06596ZM12.4171 1.5786C11.7051 0.866664 10.8599 0.301939 9.92973 -0.0833216L9.16444 1.76447C9.85196 2.04922 10.4767 2.46661 11.0029 2.99282L12.4171 1.5786ZM9.92973 -0.0833216C8.99952 -0.468582 8.00252 -0.666832 6.99569 -0.666748L6.99585 1.33325C7.74002 1.33319 8.47691 1.47972 9.16444 1.76447L9.92973 -0.0833216ZM8.18731 10.0627C8.21541 9.99258 8.25817 9.92933 8.31272 9.87713L9.69546 11.3221C9.84688 11.1772 9.96557 11.0017 10.0436 10.8071L8.18731 10.0627ZM8.31272 9.87713C8.36727 9.82493 8.43235 9.785 8.50359 9.76L9.16564 11.6473C9.36339 11.5779 9.54404 11.467 9.69546 11.3221L8.31272 9.87713ZM8.50359 9.76C8.57483 9.73501 8.6506 9.72554 8.7258 9.73222L8.54882 11.7244C8.75757 11.7429 8.96788 11.7166 9.16564 11.6473L8.50359 9.76ZM8.7258 9.73222C8.80101 9.7389 8.87392 9.76158 8.93964 9.79874L7.95525 11.5397C8.13768 11.6429 8.34006 11.7058 8.54882 11.7244L8.7258 9.73222ZM9.06102 9.87959L7.25124 8.47334L6.02409 10.0526L7.83387 11.4589L9.06102 9.87959ZM5.95959 8.52799L4.79804 9.5996L6.1542 11.0696L7.31574 9.99797L5.95959 8.52799ZM4.88186 9.53031C4.98982 9.45054 5.1161 9.39922 5.24906 9.38105L5.51981 11.3626C5.71918 11.3354 5.90851 11.2585 6.07037 11.1389L4.88186 9.53031ZM5.24906 9.38105C5.38205 9.36289 5.51746 9.37846 5.64284 9.42634L4.92939 11.2948C5.11739 11.3665 5.32042 11.3899 5.51981 11.3626L5.24906 9.38105ZM6.27993 10.4716L6.5026 8.47931L4.51497 8.25717L4.29231 10.2495L6.27993 10.4716ZM4.88733 9.15169L4.89446 9.15734L6.13736 7.59044L6.13024 7.58478L4.88733 9.15169ZM6.50928 8.48887L6.51383 8.44954L4.5271 8.21958L4.52254 8.25891L6.50928 8.48887ZM5.52046 8.33456C6.19368 9.074 6.1937 9.07399 6.19372 9.07397C6.19375 9.07394 6.19378 9.07391 6.19383 9.07386C6.19393 9.07377 6.19408 9.07364 6.19428 9.07346C6.19468 9.0731 6.19527 9.07256 6.19605 9.07185C6.19762 9.07042 6.19996 9.06829 6.20304 9.06548C6.20921 9.05986 6.21837 9.05153 6.23031 9.04065C6.25421 9.0189 6.28926 8.98698 6.33393 8.94631C6.42325 8.86497 6.55101 8.74864 6.70473 8.60864C7.01215 8.32866 7.42346 7.95401 7.83894 7.5754C8.66055 6.82669 9.52251 6.04063 9.59939 5.96742L8.22021 4.51903C8.22154 4.51776 8.21887 4.5203 8.20873 4.5297C8.19986 4.53791 8.18789 4.54896 8.17273 4.56291C8.14248 4.59074 8.10139 4.62843 8.05075 4.6748C7.94958 4.76744 7.81192 4.89322 7.65006 5.04098C7.32641 5.33642 6.90714 5.71866 6.49183 6.09713C6.07655 6.47556 5.6654 6.85006 5.35806 7.12996C5.20439 7.26991 5.07668 7.38621 4.98739 7.46751C4.94274 7.50816 4.90771 7.54007 4.88383 7.56181C4.87189 7.57268 4.86274 7.58101 4.85658 7.58662C4.8535 7.58942 4.85116 7.59155 4.8496 7.59297C4.84882 7.59368 4.84823 7.59422 4.84784 7.59458C4.84764 7.59476 4.84749 7.59489 4.84739 7.59498C4.84734 7.59503 4.84731 7.59506 4.84728 7.59508C4.84726 7.5951 4.84724 7.59512 5.52046 8.33456ZM9.59397 5.97254C9.68782 5.8845 9.89483 5.68009 9.97465 5.36447C10.0232 5.17252 10.0264 4.92789 9.91528 4.68297C9.86316 4.56808 9.79501 4.47431 9.72441 4.40044C9.68952 4.36392 9.65446 4.3327 9.62091 4.30614C9.60412 4.29285 9.58762 4.28066 9.57158 4.26948C9.56356 4.26389 9.55563 4.25855 9.54783 4.25344C9.54393 4.25088 9.54006 4.24838 9.53621 4.24594C9.53429 4.24472 9.53238 4.24351 9.53047 4.24231C9.52952 4.24172 9.52809 4.24083 9.52762 4.24053C9.52619 4.23965 9.52477 4.23877 8.9998 5.08989C8.47482 5.94101 8.4734 5.94013 8.47198 5.93925C8.47151 5.93895 8.47008 5.93807 8.46913 5.93747C8.46723 5.93628 8.46531 5.93507 8.4634 5.93386C8.45957 5.93142 8.45571 5.92893 8.45183 5.92639C8.44407 5.9213 8.43621 5.916 8.42826 5.91047C8.41238 5.8994 8.39611 5.88738 8.37961 5.87432C8.34665 5.84822 8.31241 5.81771 8.27847 5.78219C8.20977 5.7103 8.14403 5.61965 8.09396 5.50929C7.98696 5.27343 7.99286 5.04351 8.03568 4.87415C8.07445 4.72086 8.14131 4.61989 8.17147 4.57837C8.20472 4.53261 8.22907 4.51067 8.22562 4.51391L9.59397 5.97254ZM9.99856 5.13959C10.0055 4.99985 9.99044 4.77567 9.8576 4.54565C9.71227 4.29403 9.48868 4.14342 9.27357 4.07373C8.93312 3.96344 8.6395 4.06032 8.58271 4.07815C8.47347 4.11243 8.38471 4.15593 8.33777 4.18023C8.31081 4.19419 8.28802 4.20688 8.27087 4.21675C8.26217 4.22175 8.25459 4.22622 8.2483 4.22998C8.24514 4.23187 8.24228 4.23359 8.23974 4.23514C8.23847 4.23592 8.23727 4.23665 8.23615 4.23733C8.2356 4.23767 8.23506 4.23801 8.23454 4.23833C8.23428 4.23849 8.23402 4.23864 8.23377 4.2388C8.23365 4.23887 8.23346 4.23899 8.2334 4.23903C8.23322 4.23914 8.23304 4.23925 8.75879 5.08989C9.28453 5.94053 9.28435 5.94064 9.28417 5.94075C9.28411 5.94079 9.28394 5.9409 9.28382 5.94097C9.28358 5.94112 9.28335 5.94126 9.28312 5.9414C9.28266 5.94168 9.28222 5.94196 9.28178 5.94223C9.2809 5.94277 9.28006 5.94328 9.27926 5.94377C9.27765 5.94474 9.27619 5.94563 9.27485 5.94643C9.2722 5.94801 9.26996 5.94933 9.26804 5.95043C9.26445 5.95249 9.26103 5.95438 9.25727 5.95633C9.25671 5.95662 9.22963 5.9713 9.18161 5.98637C9.15688 5.99413 9.10425 6.00918 9.03203 6.01681C8.96643 6.02375 8.82637 6.03119 8.65716 5.97638C8.46429 5.91389 8.25887 5.7765 8.12568 5.54588C8.00497 5.33687 7.99599 5.14151 8.00103 5.0402L9.99856 5.13959ZM8.21774 4.2489L3.90273 7.02492L4.98482 8.70691L9.29983 5.93088L8.21774 4.2489ZM4.76616 6.91931L2.96916 6.30731L2.32439 8.20053L4.12139 8.81253L4.76616 6.91931ZM2.64678 7.25392C2.98441 6.31264 2.98472 6.31275 2.98502 6.31286C2.98512 6.3129 2.98543 6.31301 2.98563 6.31308C2.98603 6.31322 2.98643 6.31337 2.98683 6.31351C2.98763 6.3138 2.98841 6.31409 2.98919 6.31437C2.99073 6.31493 2.99224 6.31548 2.9937 6.31603C2.99661 6.31711 2.99937 6.31815 3.00197 6.31915C3.00716 6.32114 3.01181 6.32299 3.016 6.32472C3.02425 6.32812 3.03137 6.3313 3.03785 6.33443C3.04868 6.33965 3.06652 6.34891 3.08938 6.36535C3.10707 6.37807 3.30166 6.51675 3.33772 6.81865L1.35184 7.05586C1.4139 7.57542 1.75949 7.87244 1.92168 7.98907C2.01679 8.05747 2.10525 8.10508 2.16864 8.13567C2.2014 8.15148 2.2303 8.1641 2.25373 8.17376C2.26552 8.17862 2.27613 8.18281 2.28537 8.18636C2.29 8.18814 2.29431 8.18976 2.29827 8.19123C2.30026 8.19196 2.30216 8.19266 2.30397 8.19332C2.30487 8.19365 2.30576 8.19397 2.30662 8.19429C2.30705 8.19444 2.30748 8.1946 2.3079 8.19475C2.30811 8.19482 2.30842 8.19494 2.30853 8.19497C2.30884 8.19509 2.30915 8.1952 2.64678 7.25392ZM3.33687 6.81171C3.36681 7.04835 3.28728 7.23982 3.21119 7.35278C3.14466 7.45152 3.07675 7.49962 3.06021 7.5111C3.03788 7.5266 3.02374 7.53297 3.02079 7.53433C3.01764 7.53577 3.01375 7.53745 3.00841 7.53955C3.00565 7.54064 3.00229 7.54193 2.99823 7.54343C2.99619 7.54418 2.99395 7.545 2.99149 7.54588C2.99027 7.54632 2.98898 7.54677 2.98764 7.54724C2.98697 7.54748 2.98628 7.54772 2.98558 7.54797C2.98523 7.54809 2.98488 7.54821 2.98452 7.54834C2.98434 7.5484 2.98407 7.54849 2.98398 7.54852C2.9837 7.54862 2.98343 7.54871 2.65577 6.60392C2.32811 5.65912 2.32784 5.65922 2.32756 5.65931C2.32746 5.65935 2.32718 5.65944 2.32699 5.65951C2.32662 5.65964 2.32623 5.65978 2.32584 5.65991C2.32506 5.66019 2.32425 5.66047 2.32341 5.66076C2.32175 5.66135 2.31998 5.66198 2.31811 5.66265C2.31438 5.66398 2.31024 5.66548 2.30573 5.66715C2.29672 5.67047 2.28612 5.67449 2.27416 5.67921C2.25043 5.68858 2.22032 5.70111 2.18588 5.71693C2.12035 5.74703 2.02334 5.79623 1.91984 5.86807C1.78586 5.96106 1.26327 6.35615 1.35269 7.06279L3.33687 6.81171ZM3.02497 7.53327L10.1696 4.69493L9.43124 2.83623L2.28657 5.67457L3.02497 7.53327ZM9.80044 3.76558C10.2074 4.67902 10.2071 4.67914 10.2069 4.67926C10.2068 4.6793 10.2065 4.67942 10.2063 4.6795C10.206 4.67965 10.2056 4.67981 10.2053 4.67996C10.2046 4.68025 10.204 4.68054 10.2034 4.68081C10.2021 4.68136 10.201 4.68185 10.2 4.68229C10.1979 4.68318 10.1963 4.68388 10.195 4.68442C10.1925 4.68547 10.1913 4.68593 10.1913 4.68594C10.1913 4.68595 10.1922 4.68561 10.1937 4.68505C10.1953 4.68449 10.1971 4.68384 10.1992 4.68317C10.2168 4.67751 10.2067 4.68321 10.1705 4.68599C10.1501 4.68755 10.1017 4.68976 10.035 4.67846C9.96768 4.66706 9.85993 4.63811 9.74446 4.56175C9.62104 4.48015 9.52011 4.36459 9.45681 4.22931C9.39723 4.102 9.38777 3.99382 9.38777 3.93725H11.3878C11.3878 3.58168 11.2492 3.15901 10.8475 2.89346C10.5186 2.67599 10.1766 2.67965 10.0177 2.69183C9.83463 2.70586 9.67777 2.7499 9.58522 2.77975C9.5346 2.79608 9.49187 2.81192 9.46004 2.82442C9.44395 2.83074 9.43018 2.8364 9.41906 2.84107C9.41349 2.84342 9.40855 2.84554 9.40428 2.84739C9.40214 2.84831 9.40017 2.84918 9.39837 2.84997C9.39747 2.85037 9.39661 2.85074 9.39579 2.85111C9.39538 2.85129 9.39498 2.85146 9.3946 2.85164C9.3944 2.85172 9.39412 2.85185 9.39402 2.85189C9.39374 2.85202 9.39347 2.85214 9.80044 3.76558ZM9.40641 3.74509L8.13408 10.2427L10.0968 10.6271L11.3691 4.12942L9.40641 3.74509Z" fill="#94A3B8" mask="url(#path-1-inside-1_4011_14722)"/>
</svg>
