<svg width="12" height="10" viewBox="0 0 12 10" fill="none" xmlns="http://www.w3.org/2000/svg">
<g clip-path="url(#clip0_4011_14716)">
<path fill-rule="evenodd" clip-rule="evenodd" d="M2.19702 0.0491141L0.00899545 4.45186C0.000669396 4.46824 -0.00196908 4.48674 0.00146588 4.50465C0.00490083 4.52257 0.014229 4.53896 0.0280863 4.55143L5.9374 9.97596C5.95419 9.99138 5.97655 9.99999 5.9998 9.99999C6.02306 9.99999 6.04542 9.99138 6.0622 9.97596L11.9715 4.55177C11.9854 4.5393 11.9947 4.52291 11.9981 4.50499C12.0016 4.48708 11.9989 4.46858 11.9906 4.4522L9.80259 0.0494528C9.79553 0.0346665 9.78417 0.0221407 9.76988 0.0133722C9.75558 0.00460381 9.73896 -3.62715e-05 9.72198 6.55413e-06H2.27833C2.26127 -0.000196705 2.24452 0.0043316 2.23009 0.0130452C2.21567 0.0217588 2.20418 0.0342855 2.19702 0.0491141Z" fill="#50AF95"/>
<path fill-rule="evenodd" clip-rule="evenodd" d="M6.75931 4.90405C6.71689 4.9071 6.4977 4.91963 6.00876 4.91963C5.61987 4.91963 5.34376 4.90846 5.24689 4.90405C3.74402 4.84072 2.62226 4.5901 2.62226 4.29004C2.62226 3.98997 3.74402 3.7397 5.24689 3.67535V4.65445C5.34517 4.66122 5.62659 4.67714 6.01547 4.67714C6.48214 4.67714 6.71583 4.65852 6.7579 4.65479V3.67602C8.25759 3.74003 9.37688 3.99065 9.37688 4.29004C9.37688 4.58943 8.25794 4.84004 6.7579 4.90371L6.75931 4.90405ZM6.75931 3.57476V2.69861H8.85223V1.36255H3.15397V2.69861H5.24654V3.57442C3.54569 3.64927 2.2666 3.97203 2.2666 4.35879C2.2666 4.74555 3.54569 5.06797 5.24654 5.14316V7.95076H6.75896V5.14214C8.45592 5.06729 9.73288 4.74488 9.73288 4.35845C9.73288 3.97203 8.45698 3.64961 6.75896 3.57442L6.75931 3.57476Z" fill="white"/>
</g>
<defs>
<clipPath id="clip0_4011_14716">
<rect width="12" height="10" fill="white"/>
</clipPath>
</defs>
</svg>
