<svg width="18" height="18" viewBox="0 0 18 18" fill="none" xmlns="http://www.w3.org/2000/svg">
<path fill-rule="evenodd" clip-rule="evenodd" d="M0.546961 2.07078C1.21959 0.86401 2.51566 0.041748 4.00121 0.041748H11.5012C11.8464 0.041748 12.1262 0.32157 12.1262 0.666748V9.00008C12.1262 10.2619 11.0964 11.2917 9.83455 11.2917H9.00121C8.65603 11.2917 8.37621 11.0119 8.37621 10.6667C8.37621 10.3216 8.65603 10.0417 9.00121 10.0417H9.83455C10.406 10.0417 10.8762 9.57157 10.8762 9.00008V1.29175H4.00121C2.98676 1.29175 2.09952 1.8528 1.63881 2.67936C1.47076 2.98086 1.09011 3.08905 0.7886 2.921C0.487094 2.75294 0.378908 2.37229 0.546961 2.07078Z" fill="#0F172A"/>
<path fill-rule="evenodd" clip-rule="evenodd" d="M10.8753 3.16675C10.8753 2.82157 11.1551 2.54175 11.5003 2.54175H13.0337C13.8619 2.54175 14.6151 2.99008 15.0242 3.69459L15.0262 3.69814L15.0262 3.69815L16.4512 6.1898C16.5618 6.38324 16.5611 6.62094 16.4493 6.81369C16.3375 7.00644 16.1315 7.12508 15.9086 7.12508H14.8337C14.7205 7.12508 14.6253 7.22026 14.6253 7.33342V9.83342C14.6253 9.94657 14.7205 10.0417 14.8337 10.0417H17.3337C17.6788 10.0417 17.9587 10.3216 17.9587 10.6667V13.1667C17.9587 14.8953 16.5622 16.2917 14.8337 16.2917H14.0003C13.6551 16.2917 13.3753 16.0119 13.3753 15.6667C13.3753 15.0953 12.9051 14.6251 12.3337 14.6251C11.7622 14.6251 11.292 15.0953 11.292 15.6667C11.292 16.0119 11.0122 16.2917 10.667 16.2917H7.33366C6.98848 16.2917 6.70866 16.0119 6.70866 15.6667C6.70866 15.0953 6.23848 14.6251 5.66699 14.6251C5.0955 14.6251 4.62532 15.0953 4.62532 15.6667C4.62532 16.0119 4.3455 16.2917 4.00032 16.2917H3.16699C1.43848 16.2917 0.0419922 14.8953 0.0419922 13.1667C0.0419922 12.8216 0.321814 12.5417 0.666992 12.5417C1.01217 12.5417 1.29199 12.8216 1.29199 13.1667C1.29199 14.2049 2.12884 15.0417 3.16699 15.0417H3.46225C3.73555 14.0818 4.62165 13.3751 5.66699 13.3751C6.71233 13.3751 7.59843 14.0818 7.87173 15.0417H10.1289C10.4022 14.0818 11.2883 13.3751 12.3337 13.3751C13.379 13.3751 14.2651 14.0818 14.5384 15.0417H14.8337C15.8718 15.0417 16.7087 14.2049 16.7087 13.1667V11.2917H14.8337C14.0301 11.2917 13.3753 10.6369 13.3753 9.83342V7.33342C13.3753 6.53072 14.0288 5.87641 14.8312 5.87508L13.9432 4.32226C13.9429 4.32171 13.9425 4.32117 13.9422 4.32063C13.7511 3.99277 13.4049 3.79175 13.0337 3.79175H12.1253V9.00008C12.1253 10.2619 11.0955 11.2917 9.83366 11.2917H9.00032C8.65515 11.2917 8.37532 11.0119 8.37532 10.6667C8.37532 10.3216 8.65515 10.0417 9.00032 10.0417H9.83366C10.4051 10.0417 10.8753 9.57157 10.8753 9.00008V3.16675Z" fill="#0F172A"/>
<path fill-rule="evenodd" clip-rule="evenodd" d="M5.66764 14.6252C5.09235 14.6252 4.62598 15.0916 4.62598 15.6669C4.62598 16.2422 5.09235 16.7086 5.66764 16.7086C6.24294 16.7086 6.70931 16.2422 6.70931 15.6669C6.70931 15.0916 6.24294 14.6252 5.66764 14.6252ZM3.37598 15.6669C3.37598 14.4013 4.40199 13.3752 5.66764 13.3752C6.9333 13.3752 7.95931 14.4013 7.95931 15.6669C7.95931 16.9326 6.9333 17.9586 5.66764 17.9586C4.40199 17.9586 3.37598 16.9326 3.37598 15.6669Z" fill="#0F172A"/>
<path fill-rule="evenodd" clip-rule="evenodd" d="M12.3337 14.6252C11.7584 14.6252 11.292 15.0916 11.292 15.6669C11.292 16.2422 11.7584 16.7086 12.3337 16.7086C12.909 16.7086 13.3753 16.2422 13.3753 15.6669C13.3753 15.0916 12.909 14.6252 12.3337 14.6252ZM10.042 15.6669C10.042 14.4013 11.068 13.3752 12.3337 13.3752C13.5993 13.3752 14.6253 14.4013 14.6253 15.6669C14.6253 16.9326 13.5993 17.9586 12.3337 17.9586C11.068 17.9586 10.042 16.9326 10.042 15.6669Z" fill="#0F172A"/>
<path fill-rule="evenodd" clip-rule="evenodd" d="M14.8343 7.12524C14.7212 7.12524 14.626 7.22042 14.626 7.33358V9.83358C14.626 9.94673 14.7212 10.0419 14.8343 10.0419H16.7093V9.16586L15.5461 7.12524H14.8343ZM13.376 7.33358C13.376 6.53007 14.0308 5.87524 14.8343 5.87524H15.9093C16.1338 5.87524 16.3411 5.99568 16.4523 6.19074L17.8773 8.69074C17.931 8.78504 17.9593 8.8917 17.9593 9.00024V10.6669C17.9593 11.0121 17.6795 11.2919 17.3343 11.2919H14.8343C14.0308 11.2919 13.376 10.6371 13.376 9.83358V7.33358Z" fill="#0F172A"/>
<path fill-rule="evenodd" clip-rule="evenodd" d="M0.0419922 5.66675C0.0419922 5.32157 0.321814 5.04175 0.666992 5.04175H5.66699C6.01217 5.04175 6.29199 5.32157 6.29199 5.66675C6.29199 6.01193 6.01217 6.29175 5.66699 6.29175H0.666992C0.321814 6.29175 0.0419922 6.01193 0.0419922 5.66675Z" fill="#0F172A"/>
<path fill-rule="evenodd" clip-rule="evenodd" d="M0.0419922 8.16675C0.0419922 7.82157 0.321814 7.54175 0.666992 7.54175H4.00033C4.3455 7.54175 4.62533 7.82157 4.62533 8.16675C4.62533 8.51193 4.3455 8.79175 4.00033 8.79175H0.666992C0.321814 8.79175 0.0419922 8.51193 0.0419922 8.16675Z" fill="#0F172A"/>
<path fill-rule="evenodd" clip-rule="evenodd" d="M0.0419922 10.6667C0.0419922 10.3216 0.321814 10.0417 0.666992 10.0417H2.33366C2.67884 10.0417 2.95866 10.3216 2.95866 10.6667C2.95866 11.0119 2.67884 11.2917 2.33366 11.2917H0.666992C0.321814 11.2917 0.0419922 11.0119 0.0419922 10.6667Z" fill="#0F172A"/>
</svg>
