<svg width="16" height="16" viewBox="0 0 16 16" fill="none" xmlns="http://www.w3.org/2000/svg">
<path fill-rule="evenodd" clip-rule="evenodd" d="M4.17366 5.66602C3.0698 5.66602 2.16699 6.56883 2.16699 7.67269V12.1593C2.16699 13.2632 3.0698 14.166 4.17366 14.166H11.827C12.9308 14.166 13.8337 13.2632 13.8337 12.1593V11.866H13.067C12.1273 11.866 11.2153 11.1789 11.129 10.1639C11.0751 9.58906 11.294 9.05206 11.6732 8.67933C12.0143 8.33145 12.4819 8.13269 12.987 8.13269H13.8337V7.67269C13.8337 6.56883 12.9308 5.66602 11.827 5.66602H4.17366ZM1.16699 7.67269C1.16699 6.01655 2.51752 4.66602 4.17366 4.66602H11.827C13.4831 4.66602 14.8337 6.01655 14.8337 7.67269V8.63269C14.8337 8.90883 14.6098 9.13269 14.3337 9.13269H12.987C12.7476 9.13269 12.5371 9.2255 12.3852 9.38148L12.3764 9.39058L12.3763 9.39046C12.1989 9.56361 12.0998 9.81014 12.1247 10.0719L12.1253 10.0778L12.1253 10.0778C12.1605 10.5011 12.5676 10.866 13.067 10.866H14.3337C14.6098 10.866 14.8337 11.0899 14.8337 11.366V12.1593C14.8337 13.8155 13.4831 15.166 11.827 15.166H4.17366C2.51752 15.166 1.16699 13.8155 1.16699 12.1593V7.67269Z" fill="#0F172A"/>
<path fill-rule="evenodd" clip-rule="evenodd" d="M9.40033 2.63236C9.40033 2.09402 8.8623 1.72443 8.36421 1.91322L3.07061 3.91332C2.52597 4.1194 2.16699 4.63925 2.16699 5.22571V8.27234C2.16699 8.54848 1.94313 8.77234 1.66699 8.77234C1.39085 8.77234 1.16699 8.54848 1.16699 8.27234V5.22571C1.16699 4.22549 1.78135 3.33196 2.71671 2.97804L8.00978 0.978137C8.00969 0.978172 8.00987 0.978101 8.00978 0.978137C9.16494 0.540507 10.4003 1.39748 10.4003 2.63236V5.16569C10.4003 5.44183 10.1765 5.66569 9.90033 5.66569C9.62418 5.66569 9.40033 5.44183 9.40033 5.16569V2.63236Z" fill="#0F172A"/>
<path fill-rule="evenodd" clip-rule="evenodd" d="M12.9862 9.13281C12.7468 9.13281 12.5363 9.22562 12.3845 9.3816L12.3756 9.3907L12.3755 9.39058C12.1981 9.56373 12.099 9.81026 12.124 10.0721L12.1245 10.0779L12.1245 10.0779C12.1598 10.5013 12.5668 10.8661 13.0662 10.8661H14.3614C14.4692 10.8592 14.5396 10.7749 14.5396 10.6862V9.31279C14.5396 9.22404 14.4692 9.13976 14.3614 9.13281H12.9862ZM11.6724 8.67945C12.0135 8.33157 12.4811 8.13281 12.9862 8.13281H14.3729C14.3788 8.13281 14.3848 8.13292 14.3907 8.13313C15.0261 8.15582 15.5396 8.66994 15.5396 9.31279V10.6862C15.5396 11.329 15.0261 11.8431 14.3907 11.8658C14.3848 11.866 14.3788 11.8661 14.3729 11.8661H13.0662C12.1265 11.8661 11.2144 11.179 11.1282 10.1639C11.0744 9.58913 11.2932 9.05216 11.6724 8.67945Z" fill="#0F172A"/>
<path fill-rule="evenodd" clip-rule="evenodd" d="M4.16699 8C4.16699 7.72386 4.39085 7.5 4.66699 7.5H9.33366C9.6098 7.5 9.83366 7.72386 9.83366 8C9.83366 8.27614 9.6098 8.5 9.33366 8.5H4.66699C4.39085 8.5 4.16699 8.27614 4.16699 8Z" fill="#0F172A"/>
</svg>
